<?xml version="1.0" standalone="no"?>
<!DOCTYPE svg PUBLIC "-//W3C//DTD SVG 1.1//EN" "http://www.w3.org/Graphics/SVG/1.1/DTD/svg11.dtd" >
<svg xmlns="http://www.w3.org/2000/svg">
<metadata></metadata>
<defs>
<font id="romeralregular" horiz-adv-x="1355" >
<font-face units-per-em="2048" ascent="1638" descent="-410" />
<missing-glyph horiz-adv-x="512" />
<glyph horiz-adv-x="2048" />
<glyph horiz-adv-x="2048" />
<glyph unicode="&#xd;" horiz-adv-x="2048" />
<glyph unicode=" "  horiz-adv-x="512" />
<glyph unicode="&#x09;" horiz-adv-x="512" />
<glyph unicode="&#xa0;" horiz-adv-x="512" />
<glyph unicode="!" horiz-adv-x="610" d="M84 1343q-9 116 69.5 188.5t190.5 72.5q110 0 190.5 -78t73.5 -183l-63 -854q-6 -84 -62.5 -140t-140.5 -56q-80 0 -134.5 56t-62.5 140zM90 -33q0 -108 73.5 -182t178.5 -74q108 0 183 74t75 182q0 106 -75.5 182t-182.5 76q-104 0 -178 -76t-74 -182z" />
<glyph unicode="&#x22;" horiz-adv-x="321" d="M-63 1501q-3 45 28 74t74 29t75 -31t29 -72l-26 -307q-5 -34 -26 -56t-54 -22q-32 0 -53.5 22.5t-24.5 55.5zM195 1501q-3 45 28 74t74 29t75 -31t29 -72l-26 -307q-5 -34 -26 -56t-54 -22q-32 0 -53.5 22.5t-24.5 55.5z" />
<glyph unicode="#" horiz-adv-x="1216" d="M0 780l88 242h143l70 186h-145l88 242h147l55 149h259l-56 -149h223l56 149h258l-56 -149h148l-84 -242h-152l-69 -186h153l-84 -242h-157l-54 -145h-260l54 145h-224l-53 -145h-258l53 145h-143zM489 1022h224l69 186h-223z" />
<glyph unicode="$" horiz-adv-x="1208" d="M82 766q0 103 62 180.5t165 120.5v178h242v-129h12q55 0 117 -6v135h242v-164l174 -30v-297h-361q0 4 -1.5 11.5t-9 26.5t-20 33.5t-38.5 26.5t-60 12q-50 0 -83.5 -25t-33.5 -55q0 -35 27.5 -57.5t72 -33t102 -22.5t117 -22t117 -34.5t102 -58.5t72 -94.5t27.5 -142.5 q0 -98 -53.5 -173.5t-150.5 -122.5v-205h-242v147q-10 0 -32 -1t-32 -1q-12 0 -33.5 1t-31.5 1v-147h-242v176q-61 13 -117 29.5t-82 26.5l-26 11v271h360q1 -5 3 -12t12 -26.5t25 -34t43.5 -26.5t64.5 -12q51 0 84 27t33 63q0 32 -21.5 53.5t-57.5 32.5t-83.5 18.5t-99 16 t-103.5 20t-99.5 35t-83.5 57.5t-57.5 91t-21.5 131z" />
<glyph unicode="%" horiz-adv-x="1622" d="M35 762q0 146 104 250t250 104q147 0 253 -104t106 -250t-106.5 -252.5t-252.5 -106.5t-250 106t-104 253zM227 762q0 -69 48 -117.5t114 -48.5q69 0 117.5 48.5t48.5 117.5q0 66 -48.5 114t-117.5 48q-66 0 -114 -48t-48 -114zM299 -90l893 1335l139 -88l-891 -1339z M893 324q0 146 104 250t250 104q147 0 253 -104t106 -250t-106.5 -252.5t-252.5 -106.5t-250 106t-104 253zM1085 324q0 -69 48 -117.5t114 -48.5q69 0 117.5 48.5t48.5 117.5q0 66 -48.5 113.5t-117.5 47.5q-66 0 -114 -47.5t-48 -113.5z" />
<glyph unicode="&#x26;" horiz-adv-x="1482" d="M51 340q0 56 19 103t48.5 78.5t72 55.5t81.5 37.5t85.5 23t75.5 12.5t59 5q-30 1 -64.5 6t-85.5 17t-96 35t-85.5 55.5t-64.5 85t-24 117.5q0 190 142 282.5t394 92.5q144 0 283 -25t205 -49l67 -25v-270h-344q-5 40 -38 69t-77 36t-87 -1.5t-73 -46.5t-30 -96 q0 -90 62 -135t204 -45v-209q-151 0 -218.5 -41.5t-67.5 -134.5q0 -67 48 -108t116 -50.5t139.5 -1t122.5 32.5v303h-101v209h627v-209h-113v-426q-8 -6 -23 -17t-72 -38t-124.5 -48t-182 -38t-243.5 -17q-186 0 -326 38t-225.5 124t-85.5 213z" />
<glyph unicode="'" horiz-adv-x="212" d="M4 1501q-3 45 28 74t74 29t75.5 -31t29.5 -72l-27 -307q-5 -34 -26 -56t-54 -22q-31 0 -52.5 22.5t-24.5 55.5z" />
<glyph unicode="(" horiz-adv-x="737" d="M29 637q0 225 37 406.5t100 303t151 203.5t185.5 118t206.5 36v-338q-299 0 -299 -729t299 -729v-338q-109 0 -207 36.5t-185.5 118.5t-150.5 204t-100 303t-37 405z" />
<glyph unicode=")" horiz-adv-x="737" d="M29 -92q299 0 299 729t-299 729v338q109 0 207 -36.5t185.5 -118.5t150.5 -204t100 -303t37 -405q0 -225 -37 -406.5t-100 -303t-151 -203.5t-185.5 -118t-206.5 -36v338z" />
<glyph unicode="*" horiz-adv-x="978" d="M0 1049q0 54 33 98t84.5 68.5t110 37.5t113 9.5t89.5 -19.5q-12 91 -76 117q-3 -5 -10 -12.5t-32 -20t-54 -12.5q-56 0 -95.5 42.5t-39.5 94.5q0 59 41 101t100 42q69 0 125 -40.5t87 -100.5t47.5 -117.5t17.5 -101.5q79 52 84 115q-70 34 -70 112q0 63 37.5 100t99.5 37 q59 0 99 -38t40 -101q0 -65 -25.5 -121.5t-68 -96t-83.5 -65.5t-87 -44q70 -66 133 -48q21 113 138 113q60 0 97.5 -38t37.5 -101q0 -69 -53.5 -106.5t-137.5 -37.5q-91 0 -169.5 47.5t-135.5 112.5q-42 -86 -2 -147q77 14 116.5 -24.5t39.5 -104.5q0 -62 -37.5 -96.5 t-101.5 -34.5q-55 0 -97.5 40.5t-62 93.5t-19.5 103q0 85 68 211q-77 11 -123 -14q18 -45 18 -68q0 -54 -38.5 -90.5t-98.5 -36.5q-65 0 -102 41.5t-37 100.5z" />
<glyph unicode="+" horiz-adv-x="720" d="M33 387v242h200v200h242v-200h203v-242h-203v-203h-242v203h-200z" />
<glyph unicode="," horiz-adv-x="526" d="M14 -190q6 2 17 5.5t39.5 18t53 31.5t50 47.5t37.5 64.5q-68 12 -119 64t-51 139q0 102 64.5 167t160.5 65q103 0 172.5 -64.5t69.5 -173.5q0 -77 -24 -145t-62.5 -115.5t-85 -87.5t-93 -64.5t-85 -41.5t-62.5 -24l-24 -7z" />
<glyph unicode="-" horiz-adv-x="819" d="M33 387v242h751v-242h-751z" />
<glyph unicode="." horiz-adv-x="526" d="M41 201q0 92 64 158.5t155 66.5q93 0 159 -66t66 -159q0 -95 -65.5 -159.5t-159.5 -64.5q-91 0 -155 64.5t-64 159.5z" />
<glyph unicode="/" horiz-adv-x="784" d="M-35 -113l662 1764l225 -86l-659 -1764z" />
<glyph unicode="0" horiz-adv-x="1232" d="M41 541q0 127 45 235.5t122.5 182.5t183 115.5t224.5 41.5q158 0 289 -71t209 -203.5t78 -300.5q0 -124 -45.5 -232t-123.5 -183t-183.5 -118t-223.5 -43t-224 43t-183.5 118t-122.5 183t-45 232zM373 541q0 -103 71.5 -180.5t171.5 -77.5t172 77.5t72 180.5t-72 180.5 t-172 77.5t-171.5 -77.5t-71.5 -180.5z" />
<glyph unicode="1" horiz-adv-x="669" d="M41 651v240q72 -3 127.5 16t83.5 48t45 58.5t21 50.5l4 21h210v-747h97v-338h-586v338h104v313h-106z" />
<glyph unicode="2" horiz-adv-x="983" d="M-6 758q0 161 131 259.5t371 98.5q197 0 320.5 -98.5t123.5 -245.5q0 -66 -26.5 -127t-66 -106.5t-95.5 -87t-105.5 -68t-106 -50t-86 -33t-55.5 -17.5q229 51 533 51v-334h-858v240q11 4 29 11.5t71 32.5t101.5 52.5t107 70.5t101 87t71.5 101t29 114q0 59 -35 93 t-92 34q-77 0 -110.5 -47t-11.5 -96t81 -56l-49 -188q-5 0 -13 -0.5t-33.5 1.5t-50.5 6t-58.5 13.5t-62.5 23.5t-58 38t-50 54.5t-34 75t-13 97.5z" />
<glyph unicode="3" horiz-adv-x="1099" d="M41 76v258h326q6 -50 52.5 -79.5t102.5 -29.5q55 0 93 32.5t38 88.5q0 58 -39.5 87.5t-99.5 29.5h-55v139h37q66 0 107.5 33t41.5 100q0 57 -40.5 90t-102.5 33q-53 0 -91 -29.5t-44 -80.5h-310v260q7 4 20 11.5t57.5 26t92.5 33t123 26t152 11.5q243 0 384.5 -84.5 t141.5 -232.5q0 -63 -25 -112t-58 -75t-74.5 -43t-66.5 -22t-42 -6q17 -2 34.5 -5.5t55.5 -13t68.5 -28t61.5 -45.5t49 -70.5t18 -97.5q0 -165 -134 -240.5t-413 -75.5q-77 0 -152.5 11.5t-129 27.5t-95.5 32.5t-63 27.5z" />
<glyph unicode="4" horiz-adv-x="1177" d="M35 0v338l629 747h354v-747h125v-338h-125v-299h-395v299h-588zM354 303h269v342z" />
<glyph unicode="5" horiz-adv-x="1048" d="M-18 86l86 254q21 -10 57 -24.5t129 -39t164 -24.5q113 0 161 22.5t48 73.5q0 86 -191 86h-375v651h904v-337h-506v-91h151q187 0 298.5 -83.5t111.5 -237.5q0 -188 -123.5 -279.5t-394.5 -91.5q-88 0 -173.5 12.5t-145.5 30.5t-107.5 35.5t-70.5 30.5z" />
<glyph unicode="6" horiz-adv-x="1112" d="M16 608q0 161 46.5 295t135.5 233.5t228 154.5t315 55q106 0 198.5 -25t132.5 -49l40 -25l-74 -254q-14 7 -38.5 18t-98 29.5t-143.5 18.5q-163 0 -262 -80.5t-113 -218.5q31 44 85.5 73t119 36t134.5 -1.5t134 -41t115.5 -81t82.5 -124.5t31 -168q0 -223 -137.5 -355.5 t-369.5 -132.5q-128 0 -228 38t-162 99.5t-101.5 147t-55 173t-15.5 185.5zM403 444q0 -110 43 -160.5t113 -50.5t113 50.5t43 160.5q0 213 -156 213t-156 -213z" />
<glyph unicode="7" horiz-adv-x="993" d="M-2 -309q7 115 33.5 224.5t66 197.5t88.5 169.5t102 144t105 116t98.5 90.5t82 63.5t56.5 39.5l21 12h-618v337h903v-337q-10 -9 -27 -26t-67 -74t-95.5 -119t-102.5 -158.5t-99 -196t-73 -227.5t-36 -256h-438z" />
<glyph unicode="8" horiz-adv-x="1183" d="M23 342q0 51 18.5 96t45.5 75t66.5 56t70.5 40t70 26.5t52.5 15.5t30.5 6q-16 3 -46 13t-80.5 36.5t-92.5 60.5t-73.5 90.5t-31.5 121.5q0 367 537 367h2q126 -1 222 -22.5t154 -56t94.5 -83.5t50 -98.5t13.5 -106.5q0 -55 -21.5 -103.5t-56.5 -82t-73 -59.5t-77.5 -42.5 t-62 -24.5t-34.5 -10q308 -68 350 -257q6 -28 6 -58q0 -76 -34 -142.5t-100.5 -119.5t-178 -84t-254.5 -31t-254.5 31t-178 84t-100.5 119.5t-34 142.5zM414 375q0 -61 48 -104.5t128 -43.5t128 43.5t48 104.5q0 77 -51 124t-125 64q-74 -17 -125 -64t-51 -124zM434 938 q0 -142 156 -188q155 46 155 188q0 71 -44.5 109t-110.5 38h-6q-64 0 -107 -38.5t-43 -108.5z" />
<glyph unicode="9" horiz-adv-x="1112" d="M18 625q0 223 138 355t370 132q129 0 228.5 -38t161.5 -101t101 -153.5t54.5 -186.5t15.5 -209q0 -164 -37.5 -296t-115 -232.5t-207.5 -155.5t-305 -55q-67 0 -129.5 10t-104.5 24.5t-74.5 29t-47.5 24.5l-15 10l74 254q14 -7 38.5 -18t98.5 -29.5t144 -18.5 q156 0 237 99t78 247q-31 -44 -86 -73t-119.5 -36t-134 1.5t-134 41.5t-116 81.5t-82.5 124.5t-31 168zM389 633q0 -213 156 -213q155 0 155 213q0 110 -42.5 160.5t-112.5 50.5t-113 -50.5t-43 -160.5z" />
<glyph unicode=":" horiz-adv-x="526" d="M41 201q0 92 64 158.5t155 66.5q93 0 159 -66t66 -159q0 -95 -65.5 -159.5t-159.5 -64.5q-91 0 -155 64.5t-64 159.5zM41 891q0 92 64 158.5t155 66.5q93 0 159 -66t66 -159q0 -95 -65.5 -159t-159.5 -64q-91 0 -155 64t-64 159z" />
<glyph unicode=";" horiz-adv-x="526" d="M14 -190q6 2 17 5.5t39.5 18t53 31.5t50 47.5t37.5 64.5q-68 12 -119 64t-51 139q0 102 64.5 167t160.5 65q103 0 172.5 -64.5t69.5 -173.5q0 -77 -24 -145t-62.5 -115.5t-85 -87.5t-93 -64.5t-85 -41.5t-62.5 -24l-24 -7zM41 891q0 92 64 158.5t155 66.5q93 0 159 -66 t66 -159q0 -95 -65.5 -159t-159.5 -64q-91 0 -155 64t-64 159z" />
<glyph unicode="&#x3c;" horiz-adv-x="677" d="M-6 389v293l569 367l133 -207l-475 -307l475 -306l-133 -206z" />
<glyph unicode="=" horiz-adv-x="970" d="M33 252v242h909v-242h-909zM33 592v242h909v-242h-909z" />
<glyph unicode="&#x3e;" horiz-adv-x="677" d="M-39 227l475 308l-475 305l133 207l570 -367v-293l-570 -367z" />
<glyph unicode="?" horiz-adv-x="997" d="M37 1235v270q8 4 23.5 10.5t64 24t98 30.5t120.5 23.5t138 10.5q529 0 529 -377q0 -77 -21.5 -141t-56.5 -107t-77 -79.5t-84 -67t-77 -60t-56.5 -68t-21.5 -83.5v-144h-346v205q0 58 19.5 106t51 81.5t69 62.5t75.5 57t69.5 57t51 70t19.5 90q0 119 -144 119 q-34 0 -62 -9.5t-43 -22.5t-25.5 -26t-13.5 -23l-3 -9h-297zM231 180q0 -92 61.5 -153.5t149.5 -61.5q91 0 154 61.5t63 153.5q0 90 -63.5 153.5t-153.5 63.5q-88 0 -149.5 -64t-61.5 -153z" />
<glyph unicode="@" horiz-adv-x="1757" d="M2 393q0 177 69.5 329t188.5 256t280 163t341 59q183 0 341.5 -47.5t279 -138t190 -232t69.5 -317.5q0 -109 -32.5 -199.5t-86.5 -147.5t-122 -95t-142 -47.5t-143.5 0t-129.5 43t-97 85.5q-94 -61 -194 -76.5t-184.5 15t-139 125.5t-54.5 242q0 103 34.5 180t93.5 121 t129 65t151 21q91 0 191.5 -19.5t154.5 -39.5l55 -19v-408q0 -37 22 -62.5t60 -25.5q69 0 108.5 74.5t39.5 163.5q0 95 -31 173.5t-86 133t-130 92t-161.5 55t-183.5 17.5q-162 0 -296 -67t-214 -192t-80 -284q0 -118 40.5 -220.5t115 -178t186.5 -119t248 -43.5l-2 -256 q-213 0 -380.5 60t-276.5 169.5t-165.5 259.5t-56.5 332zM731 410q0 -69 17 -112.5t40.5 -60t56.5 -18.5t56 4.5t47 16.5v333q-23 11 -47 17.5t-56 5t-56 -17.5t-41 -58.5t-17 -109.5z" />
<glyph unicode="A" horiz-adv-x="1345" d="M14 -2v338h49l390 995h438l389 -995h47v-338h-549v338h64l-33 84h-274l-33 -84h67v-338h-555zM588 557h168l-84 213z" />
<glyph unicode="B" horiz-adv-x="1294" d="M51 0v338h111v635h-109v338h637q44 0 87.5 -3t100.5 -12t106 -24t98 -41t83.5 -60.5t56 -86t21.5 -113.5q0 -73 -33.5 -129t-77.5 -84t-98 -46t-85.5 -22t-49.5 -4q16 -2 33 -5.5t53.5 -14t67.5 -24.5t67.5 -39t62 -56t43 -76.5t17.5 -99.5q0 -69 -21.5 -126t-55.5 -94.5 t-82.5 -66t-96.5 -44.5t-104.5 -25.5t-98.5 -12t-86 -2.5h-647zM598 338h98q55 0 84 29.5t29 81.5q0 46 -29.5 76t-83.5 30h-98v-217zM598 795h98q113 0 113 90q0 36 -30 62t-83 26h-98v-178z" />
<glyph unicode="C" horiz-adv-x="1243" d="M53 674q0 139 34 252.5t92.5 190.5t139.5 129.5t173 76t196 23.5q92 0 177 -15t141 -36t98.5 -43t61.5 -37l20 -15v-315h-340q-1 5 -3.5 13.5t-13.5 29.5t-26.5 37t-45.5 29.5t-67 13.5q-88 0 -140 -84t-52 -244q0 -102 24.5 -177t68 -116.5t95.5 -60.5t115 -19 q76 0 161.5 18t133.5 36l47 18l61 -313q-63 -28 -136 -49.5t-157 -34.5q-85 -14 -169 -16q-12 0 -24 -1q-72 1 -145 13q-85 14 -161 44t-142 86t-114 132t-75.5 187t-27.5 247z" />
<glyph unicode="D" horiz-adv-x="1343" d="M51 0v338h111v635h-109v338h590q189 0 337 -83.5t230 -233t82 -339.5q0 -189 -82 -338.5t-230 -233t-337 -83.5h-592zM598 338q47 5 90.5 25t82 56.5t62 97.5t23.5 138t-22 138t-59.5 97.5t-82 56.5t-94.5 24v-633z" />
<glyph unicode="E" horiz-adv-x="1257" d="M51 0v338h111v635h-109v338h1153v-480h-338v142h-270v-178h270v-240h-270v-217h270v180h338v-518h-1155z" />
<glyph unicode="F" horiz-adv-x="1257" d="M51 0v338h111v635h-109v338h1153v-480h-338v142h-270v-205h274v-256h-274v-174h111v-338h-658z" />
<glyph unicode="G" horiz-adv-x="1243" d="M55 676q0 173 50.5 305t138 210t197 116.5t237.5 38.5q97 0 185 -15.5t144 -37.5t98.5 -44t61.5 -37l19 -16v-311h-340q-1 5 -3.5 13.5t-13.5 29.5t-26.5 37t-45.5 29.5t-67 13.5q-90 0 -141 -82t-51 -250q0 -211 85 -307q63 -71 178 -71q41 0 89 9v119h-191v262h541 v-627q-9 -4 -25 -10.5t-67 -23t-103 -29t-128 -23t-148 -10.5q-110 0 -205 21t-183 72.5t-150 130.5t-99 203.5t-37 283.5z" />
<glyph unicode="H" horiz-adv-x="1495" d="M51 0v338h111v635h-111v338h658v-338h-111v-252h299v252h-111v338h658v-338h-111v-635h109v-338h-656v338h111v246h-299v-246h109v-338h-656z" />
<glyph unicode="I" horiz-adv-x="759" d="M51 0v338h111v635h-111v338h658v-338h-111v-635h109v-338h-656z" />
<glyph unicode="J" horiz-adv-x="749" d="M-219 -430l69 324q49 -18 102 -21q11 -1 21 -1q42 0 81 10q47 13 77.5 52t30.5 99v940h-111v338h658v-338h-111v-1018q0 -208 -136 -322t-351 -114q-94 0 -176.5 12.5t-118.5 25.5z" />
<glyph unicode="K" horiz-adv-x="1368" d="M51 0v338h111v635h-111v338h619v-338h-72v-152l356 490h363v-338h-143l-230 -318l230 -317h141v-338h-359l-358 492v-154h70v-338h-617z" />
<glyph unicode="L" horiz-adv-x="1200" d="M51 0v338h111v635h-111v338h658v-338h-111v-635h213v180h338v-518h-1098z" />
<glyph unicode="M" horiz-adv-x="2127" d="M51 0v338h111v635h-111v338h862v-338h-67l217 -592l219 592h-68v338h863v-338h-111v-635h109v-338h-656v338h111v502l-318 -863h-297l-317 863v-502h109v-338h-656z" />
<glyph unicode="N" horiz-adv-x="1615" d="M51 0v338h111v635h-111v338h531l436 -744v406h-111v338h658v-338h-111v-635h109v-338h-537l-428 731v-393h109v-338h-656z" />
<glyph unicode="O" d="M23 647q0 144 38.5 262.5t102.5 197.5t150 132.5t177 77.5t187 24t187 -24t177 -77.5t150 -132.5t102.5 -197.5t38.5 -262.5t-38.5 -261.5t-102.5 -194.5t-150 -129t-177 -74.5t-187 -22.5t-187 22.5t-177 74.5t-150 129t-102.5 194.5t-38.5 261.5zM492 647 q0 -193 52.5 -285t133.5 -92t133.5 92t52.5 285q0 194 -53 291.5t-133 97.5t-133 -97.5t-53 -291.5z" />
<glyph unicode="P" horiz-adv-x="1335" d="M51 0v338h111v635h-111v338h756q74 0 142.5 -16.5t130 -51.5t106.5 -85.5t71.5 -124.5t26.5 -163q0 -106 -37.5 -188t-100.5 -130t-138.5 -72.5t-159.5 -24.5h-250v-117h113v-338h-660zM598 770h147q43 0 73 29.5t30 70.5q0 43 -30 73t-73 30h-147v-203z" />
<glyph unicode="Q" d="M23 647q0 171 53.5 306t145.5 218.5t208 126.5t248 43q63 0 126 -11.5t128 -37t123.5 -63.5t109.5 -94.5t88 -126t58.5 -162t21.5 -199.5q0 -424 -319 -602q33 -54 65.5 -93t77 -74.5t101 -54t124.5 -18.5q81 0 155 28.5t108 56.5l34 28l123 -186q-6 -10 -17.5 -27 t-53.5 -60t-91.5 -76t-132 -60t-174.5 -27q-105 0 -193.5 24t-146.5 58.5t-113.5 90t-87 100.5t-76.5 110t-73 100q-283 19 -451.5 196t-168.5 486zM492 668q0 -61 4.5 -116.5t9.5 -80.5l4 -25q41 9 79 9q49 0 95 -15q80 -27 135 -90q45 123 45 318q0 90 -17.5 170t-61 139 t-107.5 59q-50 0 -87.5 -34t-58 -90t-30.5 -117.5t-10 -126.5z" />
<glyph unicode="R" horiz-adv-x="1335" d="M51 0v338h111v635h-109v338h637q44 0 87.5 -3t100.5 -12t106 -24t98 -41t83.5 -60.5t56 -86t21.5 -113.5q0 -166 -197 -245q-55 -23 -147 -40h26q85 0 143 -17q68 -20 97.5 -53t45 -74t20.5 -80t13.5 -70.5t34.5 -46.5q17 -10 44 -10q14 0 31 3v-338q-63 -10 -117 -10 q-17 0 -33 1q-68 4 -122 14.5t-96.5 35t-75 51.5t-55.5 63.5t-38.5 71.5t-24.5 76t-12.5 76t-3.5 72q0 42 -30 74t-82 32l-66 -2v-217h117v-338h-664zM598 795h98q113 0 113 90q0 36 -30 62t-83 26h-98v-178z" />
<glyph unicode="S" horiz-adv-x="1144" d="M51 61v271h361q1 -5 3 -12t11 -26.5t22.5 -34t39 -26.5t57.5 -12q60 0 90.5 31.5t30.5 79.5q0 40 -33.5 72.5t-87 57t-118.5 50.5t-129.5 62.5t-118 83t-87 121t-33.5 169.5q0 172 146 282.5t383 110.5q117 0 236 -16.5t179 -32.5l60 -16v-297h-350q0 5 -1.5 12t-9 26.5 t-20 34t-38.5 26.5t-60 12q-53 0 -80 -31t-27 -80q0 -37 26.5 -67.5t70 -52t99 -47t113 -49t113 -61t99 -81t70 -110.5t26.5 -149q0 -86 -28 -156t-87 -125.5t-159.5 -86.5t-235.5 -31q-88 0 -175 10t-148.5 24.5t-111 29t-73.5 24.5z" />
<glyph unicode="T" horiz-adv-x="1329" d="M0 831v480h1329v-480h-338v142h-108v-635h110v-338h-657v338h110v635h-108v-142h-338z" />
<glyph unicode="U" horiz-adv-x="1486" d="M51 973v338h658v-338h-111v-510q0 -74 39.5 -123t110.5 -49q73 0 111 48.5t38 123.5v510h-111v338h658v-338h-111v-522q0 -219 -153 -335t-432 -116t-432.5 116t-153.5 335v522h-111z" />
<glyph unicode="V" horiz-adv-x="1294" d="M12 973v338h549v-338h-63l147 -402l148 402h-68v338h555v-338h-49l-367 -996h-438l-367 996h-47z" />
<glyph unicode="W" horiz-adv-x="1939" d="M12 973v338h549v-338h-63l174 -522l108 294h-67v338h514v-338h-68l109 -299l180 527h-68v338h555v-338h-49l-352 -996h-442l-123 424l-123 -424h-438l-349 996h-47z" />
<glyph unicode="X" horiz-adv-x="1257" d="M51 0v338h47l332 317l-330 318h-49v338h555v-338h-108l131 -127l131 127h-109v338h555v-338h-49l-330 -318l332 -317h47v-338h-549v338h105l-133 127l-133 -127h104v-338h-549z" />
<glyph unicode="Y" horiz-adv-x="1259" d="M41 973v338h549v-338h-64l103 -182l102 182h-67v338h555v-338h-50l-321 -570h-2v-65h108v-338h-655v338h111v65l-322 570h-47z" />
<glyph unicode="Z" horiz-adv-x="1079" d="M51 0v219l514 752h-147v-111h-348v449h956v-224l-494 -747h109v80h387v-418h-977z" />
<glyph unicode="[" horiz-adv-x="638" d="M35 -401v2105h579v-338h-143v-1429h141v-338h-577z" />
<glyph unicode="\" horiz-adv-x="784" d="M-33 1565l226 86l661 -1764l-227 -86z" />
<glyph unicode="]" horiz-adv-x="638" d="M27 -63h143v1429h-141v338h577v-2105h-579v338z" />
<glyph unicode="^" horiz-adv-x="677" d="M-98 1085l297 521h293l296 -521h-284l-160 277l-160 -277h-282z" />
<glyph unicode="_" horiz-adv-x="970" d="M33 0v242h909v-242h-909z" />
<glyph unicode="`" horiz-adv-x="657" d="M27 1397l209 309l397 -315q-4 -64 -50 -110t-118.5 -55t-163.5 34z" />
<glyph unicode="a" horiz-adv-x="1384" d="M41 510q0 131 35 235t95 172.5t145.5 114t182.5 65t210 19.5q126 0 257 -29t199 -57l68 -29v-589q-1 -56 29 -70q17 -8 41 -9q18 0 40 5v-330q-9 -5 -27 -12t-79 -19t-129 -12q-179 0 -258 119q-149 -119 -328 -119q-97 0 -181.5 32.5t-152.5 96.5t-107.5 171t-39.5 245z M477 545q0 -281 180 -281q61 0 140 31v498q-57 28 -125 28q-37 0 -69 -12.5t-61.5 -42t-47 -86t-17.5 -135.5z" />
<glyph unicode="b" horiz-adv-x="1390" d="M41 1227v338h553v-545q61 41 132 66q70 24 142 28q13 1 27 1q59 -1 116 -13q70 -16 131.5 -59.5t107.5 -109t73 -166.5t27 -226q0 -122 -34 -220.5t-90.5 -163t-134.5 -109t-162.5 -64t-178.5 -21.5q-135 0 -283 30.5t-229 60.5l-80 30v1143h-117zM594 295 q25 -10 49 -17.5t57 -11.5q16 -2 31.5 -2t29.5 2q28 4 57 21t49 47t33 83t13 124t-13 124.5t-33 83.5t-49 47.5t-57 21.5q-14 2 -29.5 2t-31.5 -2q-33 -4 -57.5 -11.5t-48.5 -18.5v-493z" />
<glyph unicode="c" horiz-adv-x="1173" d="M41 541q0 266 147.5 420.5t391.5 154.5q91 0 177.5 -14t145.5 -34t105 -40.5t68 -34.5l22 -14v-311h-340q0 6 -1.5 15t-10 32.5t-21.5 41.5t-39.5 33t-60.5 15q-73 0 -110.5 -62.5t-37.5 -175.5q0 -123 72 -192.5t172 -69.5q74 0 155.5 23.5t125.5 47.5l45 23l86 -293 q-7 -6 -21 -15.5t-62 -33.5t-101 -43t-136 -34t-170 -15q-270 0 -436 151t-166 425z" />
<glyph unicode="d" horiz-adv-x="1378" d="M41 541q0 120 24.5 217.5t67 163t100 110t121.5 64.5t135 20q159 0 302 -94v205h-111v338h547v-1153q-1 -56 29 -70q17 -8 41 -9q18 0 40 5v-330q-9 -5 -27 -12t-79 -19t-129 -12q-188 0 -264 131q-75 -68 -173 -99.5t-178 -31.5q-89 0 -167 33t-141.5 99.5t-100.5 180.5 t-37 263zM477 541q0 -90 21 -151t53.5 -88.5t75.5 -35.5q20 -4 40 -3q22 1 43 5q40 8 81 27v493q-24 11 -48 18.5t-56 11.5q-16 2 -31 2t-29 -2q-28 -4 -56.5 -21.5t-48.5 -47.5t-32.5 -83.5t-12.5 -124.5z" />
<glyph unicode="e" horiz-adv-x="1255" d="M41 541q0 123 31.5 221.5t85 163.5t128.5 108.5t158 62.5t177 19q591 0 591 -526q0 -30 -4 -92h-723q38 -191 281 -191q87 0 179 28.5t141 56.5l49 28l75 -299q-7 -6 -20.5 -17t-62.5 -38t-104.5 -48t-146.5 -38t-190 -17q-143 0 -258 33t-203 101t-136 180.5t-48 263.5z M481 631h289q0 190 -139 190q-66 0 -104.5 -43.5t-45.5 -146.5z" />
<glyph unicode="f" horiz-adv-x="745" d="M51 0v338h111v410h-111v337h109v101q0 196 142 307t382 111q85 0 163 -15t128.5 -36.5t88.5 -43t56 -36.5l17 -15v-221h-332q-1 3 -2.5 8t-9.5 18t-17.5 22.5t-27.5 17.5t-39 8q-111 0 -111 -123q0 -70 -2 -103h149v-337h-147v-410h147v-338h-694z" />
<glyph unicode="g" horiz-adv-x="1357" d="M27 -381l94 309q102 -49 223 -68q77 -13 147 -13q39 0 76 4q102 11 171 60.5t69 129.5v22q-124 -98 -291 -98q-220 0 -342.5 141t-122.5 439q0 122 34 220t90.5 162.5t134.5 108t162.5 62t178.5 18.5q135 0 283 -29t228 -57l81 -29v-720h2v-328q0 -220 -163.5 -345.5 t-460.5 -125.5q-97 0 -194 14t-166 34t-124 40.5t-83 34.5zM487 545q0 -73 13 -127t33.5 -84.5t50 -47.5t58.5 -20q12 -2 25 -2q17 0 36 2q33 5 56.5 13t47.5 18v496q-61 28 -139 28q-37 0 -67 -12.5t-57 -42t-42 -86t-15 -135.5z" />
<glyph unicode="h" horiz-adv-x="1476" d="M51 0v338h111v889h-111v338h551v-598q170 149 389 149q67 0 122 -23t91 -60t60.5 -85.5t35.5 -98.5t11 -101v-410h114v-338h-663v338h110v307q0 46 -26 72t-70 26q-78 0 -174 -65v-340h111v-338h-662z" />
<glyph unicode="i" horiz-adv-x="759" d="M51 0v338h111v410h-111v337h547v-747h111v-338h-658zM125 1399q0 106 74 182t178 76q107 0 182.5 -76t75.5 -182q0 -108 -75 -182t-183 -74q-105 0 -178.5 74t-73.5 182z" />
<glyph unicode="j" horiz-adv-x="694" d="M-340 -412l78 285q126 -44 220 -46h7q89 0 142 51q55 53 55 157v713h-111v337h549v-1140q0 -156 -77.5 -266.5t-205.5 -158.5q-97 -36 -220 -36q-39 0 -81 4q-174 15 -356 100zM125 1399q0 106 74 182t178 76q107 0 182.5 -76t75.5 -182q0 -108 -75 -182t-183 -74 q-105 0 -178.5 74t-73.5 182z" />
<glyph unicode="k" horiz-adv-x="1273" d="M51 0v338h111v889h-111v338h547v-627q135 178 387 178q131 0 200.5 -66t69.5 -196q0 -114 -82.5 -206.5t-238.5 -117.5q93 -6 160.5 -37.5t103.5 -71.5t59.5 -105t32 -114.5t16.5 -124.5q6 -54 9.5 -80.5t13.5 -70.5t22.5 -65t35 -47t51.5 -34q30 -8 74 -8h3q43 0 97 13 l55 -197q-4 -4 -12 -10t-36 -22t-61 -28t-87 -22t-113 -10q-95 0 -170 20.5t-124.5 48.5t-87 81.5t-57 95t-34 115t-19 114.5t-10.5 120q-6 78 -10.5 116t-17.5 95.5t-32.5 84.5t-55 48.5t-85.5 21.5l-57 -6v-113h111v-338h-658zM598 633q42 -8 77 -8q75 1 125 35 q74 50 74 120q0 42 -27 65t-65 23q-68 0 -126 -68.5t-58 -152.5v-14z" />
<glyph unicode="l" horiz-adv-x="759" d="M51 0v338h111v889h-111v338h547v-1227h111v-338h-658z" />
<glyph unicode="m" horiz-adv-x="2187" d="M51 0v338h113v410h-113v337h547v-124q168 155 395 155q104 0 175 -52.5t108 -137.5q176 190 430 190q67 0 122 -23t90.5 -60t60.5 -85.5t35.5 -98.5t10.5 -101v-410h111v-338h-663v338h114v307q0 45 -27 71.5t-69 26.5q-82 0 -178 -67v-338h110v-338h-663v338h114v307 q0 45 -27 71.5t-69 26.5q-81 0 -180 -69v-336h117v-338h-664z" />
<glyph unicode="n" horiz-adv-x="1474" d="M51 0v338h113v410h-113v337h547v-124q168 155 395 155q67 0 122 -23t91 -60t60.5 -85.5t35.5 -98.5t11 -101v-410h110v-338h-663v338h114v307q0 45 -27 71.5t-69 26.5q-81 0 -180 -69v-336h117v-338h-664z" />
<glyph unicode="o" horiz-adv-x="1306" d="M41 541q0 141 48 251.5t132 180t193.5 105.5t238.5 36t238.5 -35t194 -103.5t132.5 -180t48 -254.5q0 -139 -48 -250.5t-132 -182t-194.5 -108t-238.5 -37.5t-238.5 37.5t-194 108.5t-131.5 182.5t-48 249.5zM473 541q0 -136 49 -205.5t127 -69.5t128 69.5t50 205.5 q0 140 -48 209t-130 69q-78 0 -127 -69.5t-49 -208.5z" />
<glyph unicode="p" horiz-adv-x="1404" d="M61 -147h113v895h-113v337h547v-69q143 100 310 100q71 0 134.5 -20t121 -64.5t99.5 -110t66.5 -163t24.5 -217.5t-25 -217.5t-67 -163.5t-100 -110.5t-122 -64.5t-135 -20q-167 0 -307 98v-210h117v-332h-664v332zM608 295q23 -11 47 -19t57 -12q19 -3 37 -3q12 0 24 1 q29 3 58 20t50 47.5t34 84.5t13 127q0 72 -13 125.5t-34 83.5t-50 46.5t-58 19.5q-11 1 -22 1q-19 0 -39 -3q-33 -5 -57 -13t-47 -19v-487z" />
<glyph unicode="q" horiz-adv-x="1384" d="M41 545q0 122 33.5 220t90 162.5t134 108t162 62t178.5 18.5q136 0 284.5 -29t228.5 -57l81 -29v-1142h110v-338h-663v332h117v213q-61 -41 -131.5 -66t-143.5 -28q-13 -1 -26 -1q-59 0 -116 13q-70 15 -131.5 59t-107.5 109.5t-73 166.5t-27 226zM477 545q0 -73 13 -127 t33.5 -84.5t50 -47.5t58.5 -20q11 -1 23 -1q18 0 38 3q33 4 56.5 12t47.5 19v487q-24 11 -47.5 19t-56.5 13q-19 3 -37 3q-13 0 -24 -1q-29 -4 -58.5 -20t-50 -46t-33.5 -83.5t-13 -125.5z" />
<glyph unicode="r" horiz-adv-x="997" d="M51 0v338h113v410h-113v337h547v-147q116 178 313 178h66v-426l-68 8q-40 5 -76 5q-39 0 -71 -6q-62 -11 -97 -38t-51 -60t-16 -73v-188h137v-338h-684z" />
<glyph unicode="s" horiz-adv-x="1208" d="M82 766q0 82 41 150t109.5 110.5t154 66t176.5 23.5q98 0 231.5 -16.5t217.5 -32.5l84 -16v-297h-361q0 4 -1.5 11.5t-9 26.5t-20 33.5t-38.5 26.5t-60 12q-50 0 -83.5 -25t-33.5 -55q0 -35 27.5 -57.5t72 -33t102 -22.5t117 -22t117 -34.5t102 -58.5t72 -94.5 t27.5 -142.5q0 -163 -142.5 -259.5t-367.5 -96.5q-88 0 -175 10t-148.5 24.5t-110.5 29t-74 24.5l-24 10v271h360q1 -5 3 -12t12 -26.5t25 -34t43.5 -26.5t64.5 -12q51 0 84 27t33 63q0 32 -21.5 53.5t-57.5 32.5t-83.5 18.5t-99 16t-103.5 20t-99.5 35t-83.5 57.5t-57.5 91 t-21.5 131z" />
<glyph unicode="t" horiz-adv-x="776" d="M0 748v337h49q54 0 97 17t66 41.5t38 49t20 41.5l4 17h211v-166h240v-337h-240v-355q0 -48 27.5 -75.5t67.5 -31.5q18 -2 36 -3q22 -1 42 3q38 6 67 19v-287q-15 -6 -40.5 -15t-98.5 -24.5t-137 -15.5q-190 0 -290 110.5t-100 301.5v373h-59z" />
<glyph unicode="u" horiz-adv-x="1443" d="M41 748v337h549v-630q0 -53 33.5 -83t81.5 -30q67 0 141 55v351h-111v337h547v-673q0 -56 30 -70q17 -8 41 -9q18 0 40 5v-330q-9 -5 -27.5 -12t-79.5 -19t-129 -12q-212 0 -280 162q-55 -65 -144 -113.5t-211 -48.5q-172 0 -271 105t-99 288v390h-111z" />
<glyph unicode="v" horiz-adv-x="1159" d="M0 748v337h549v-337h-64l90 -230l91 230h-68v337h555v-337h-49l-309 -789h-439l-309 789h-47z" />
<glyph unicode="w" horiz-adv-x="1822" d="M0 748v337h549v-337h-64l93 -234l133 408h393l133 -410l92 236h-67v337h555v-337h-50l-309 -789h-438l-113 350l-112 -350h-439l-309 789h-47z" />
<glyph unicode="x" horiz-adv-x="1257" d="M51 0v338h88l312 205l-310 205h-90v337h555v-337h-108l131 -86l131 86h-109v337h555v-337h-90l-309 -205l311 -205h88v-338h-549v338h105l-133 88l-133 -88h104v-338h-549z" />
<glyph unicode="y" horiz-adv-x="1161" d="M2 748v337h551v-337h-70l99 -252l102 252h-74v337h551v-337h-49l-215 -533l-98 -244q-35 -89 -64 -150t-71 -122.5t-88.5 -98t-111 -59t-142.5 -22.5q-76 0 -146.5 8.5t-102.5 17.5l-32 9l41 299q76 -18 134 -19h11q51 0 83 8q35 10 62 34t39.5 46.5t26.5 57.5h-82 l-301 768h-53z" />
<glyph unicode="z" horiz-adv-x="1079" d="M51 0v252l506 496h-145v-66h-349v403h934v-260l-485 -487h129v43h387v-381h-977z" />
<glyph unicode="{" horiz-adv-x="649" d="M-14 555q-62 78 2 166q69 97 69 201v372q0 76 31.5 149t88.5 131.5t147.5 94t199.5 35.5h111v-338h-70q-71 0 -71 -72v-413q0 -48 -16.5 -91t-39.5 -69.5t-46 -46.5t-40 -28l-16 -9q6 -3 17 -9t38 -27.5t48 -47t38 -69t17 -91.5v-413q0 -72 71 -72h70v-338h-111 q-109 0 -199.5 35.5t-147.5 94t-88.5 131.5t-31.5 149v372q0 113 -71 203z" />
<glyph unicode="|" horiz-adv-x="354" d="M47 -516v2126h242v-2126h-242z" />
<glyph unicode="}" horiz-adv-x="638" d="M29 -92h69q34 0 53 18.5t19 53.5v413q0 48 16.5 91t39.5 69.5t46 46.5t40 28l16 9q-6 3 -17 9t-38 27.5t-48 47t-38 69t-17 91.5v413q0 35 -19 53.5t-53 18.5h-69v338h110q109 0 199.5 -35.5t147.5 -94t88.5 -131.5t31.5 -149v-372q0 -112 72 -203q62 -78 -2 -166 q-70 -98 -70 -201v-372q0 -76 -31.5 -149t-88.5 -131.5t-147.5 -94t-199.5 -35.5h-110v338z" />
<glyph unicode="~" horiz-adv-x="1185" d="M43 745h270q0 -43 27 -74.5t70 -31.5q44 0 91 19.5t84 43t99.5 43t132.5 19.5q90 0 156.5 -31t104 -86t55.5 -121.5t18 -146.5h-270q0 43 -27 74.5t-70 31.5q-44 0 -91 -19.5t-84 -43t-99.5 -43t-132.5 -19.5q-90 0 -156.5 31t-104 86t-55.5 121.5t-18 146.5z" />
<glyph unicode="&#xa1;" horiz-adv-x="610" d="M2 -256l64 854q6 84 62 140.5t140 56.5q80 0 134.5 -56.5t62.5 -140.5l61 -854q9 -116 -69.5 -188t-190.5 -72q-110 0 -190.5 78t-73.5 182zM10 1120q0 108 75 182t183 74q105 0 178.5 -74t73.5 -182q0 -106 -74 -182t-178 -76q-107 0 -182.5 76t-75.5 182z" />
<glyph unicode="&#xa2;" horiz-adv-x="1247" d="M41 541q0 138 47 249.5t127 181t182 106t217 36.5q70 0 131 -6l129 342l226 -86l-115 -303q54 -18 99 -41t63 -37l18 -14v-271h-340q-2 5 -5.5 13t-17.5 29t-30.5 37t-43.5 29t-58 13q-193 0 -193 -278q0 -283 193 -283q31 0 58 12.5t44 30t29.5 35.5t18.5 30l5 13h340 v-270q-6 -6 -19 -16t-61 -35t-105.5 -44t-156 -35t-209.5 -16q-27 0 -39 2l-135 -364l-227 86l127 338q-137 68 -218 200.5t-81 315.5z" />
<glyph unicode="&#xa3;" horiz-adv-x="1189" d="M51 0v338h111v410h-111v337h109v101q0 196 142 307t382 111q85 0 163 -15t128.5 -36.5t88.5 -43t56 -36.5l17 -15v-221h-332q-1 3 -2.5 8t-9.5 18t-17.5 22.5t-27.5 17.5t-39 8q-111 0 -111 -123v-103h147v-337h-147v-410h213v180h338v-518h-1098z" />
<glyph unicode="&#xa5;" horiz-adv-x="1259" d="M41 434v127h278l-28 53h-250v127h178l-131 232h-47v338h549v-338h-64l103 -182l102 182h-67v338h555v-338h-50l-131 -232h183v-127h-254l-31 -53h285v-127h-357l-16 -31h-2v-65h108v-338h-655v338h111v65l-19 31h-350z" />
<glyph unicode="&#xa6;" horiz-adv-x="354" d="M47 453h242v-969h-242v969zM47 741v869h242v-869h-242z" />
<glyph unicode="&#xa7;" horiz-adv-x="1083" d="M51 -172h336q1 -4 2.5 -11t10.5 -25t21 -32t35.5 -25t53.5 -11q57 0 85 29.5t28 74.5q0 37 -31 67t-81 52.5t-110 47t-120 58t-110 77t-81 113.5t-31 158q0 171 154 275q-154 110 -154 305q0 160 136 263.5t356 103.5q109 0 219.5 -15.5t166.5 -30.5l56 -16v-276h-325 q0 4 -1 11t-8.5 24.5t-19 31t-36 24.5t-56.5 11q-49 0 -73.5 -28.5t-24.5 -73.5q0 -39 31.5 -70t82 -55t112 -48.5t122.5 -58.5t111.5 -77t82 -111t31.5 -154q0 -196 -143 -291q143 -110 143 -288q0 -80 -26 -146t-81 -118t-148.5 -80.5t-219.5 -28.5q-129 0 -253 23 t-184 46l-59 23v252zM449 430q0 -69 106 -121q34 10 51 37.5t17 61.5q0 37 -29 64.5t-84 53.5q-61 -17 -61 -96z" />
<glyph unicode="&#xa8;" horiz-adv-x="964" d="M35 1415q0 78 54 133.5t132 55.5t133.5 -55.5t55.5 -133.5t-55.5 -132t-133.5 -54t-132 54t-54 132zM547 1415q0 78 54 133.5t132 55.5t133.5 -55.5t55.5 -133.5t-55.5 -132t-133.5 -54t-132 54t-54 132z" />
<glyph unicode="&#xa9;" horiz-adv-x="567" d="M41 1360q0 116 74.5 180t183.5 64q61 0 115.5 -15t79.5 -30l24 -15v-131h-143q0 2 -1 6t-6 14t-12 17.5t-20.5 13.5t-30.5 6q-37 0 -57.5 -26.5t-20.5 -73.5q0 -53 33.5 -81.5t89.5 -28.5q34 0 71 12t57 24l20 11l34 -125q-3 -3 -9 -7.5t-26 -15.5t-42 -20t-57 -16 t-72 -7q-140 0 -212.5 62t-72.5 182z" />
<glyph unicode="&#xaa;" horiz-adv-x="647" d="M27 1333q0 143 83.5 209t219.5 66q57 0 117 -13t91 -26l31 -13v-268q0 -44 49 -33v-149q-38 -21 -106 -21q-81 0 -117 56q-71 -56 -149 -56q-93 0 -156 63t-63 185zM225 1350q0 -127 82 -127q28 0 64 12v227q-27 13 -58 13q-37 0 -62.5 -28.5t-25.5 -96.5z" />
<glyph unicode="&#xab;" horiz-adv-x="1028" d="M-6 389v293l489 315v-292l-262 -170l262 -168v-293zM535 360v351l446 286v-292l-262 -170l262 -168v-293z" />
<glyph unicode="&#xac;" horiz-adv-x="970" d="M33 242v372h909v-616h-274v244h-635z" />
<glyph unicode="&#xad;" horiz-adv-x="819" d="M33 387v242h751v-242h-751z" />
<glyph unicode="&#xae;" horiz-adv-x="595" d="M49 1085v136h45v252h-45v135h254q34 0 66 -5t70 -17.5t61.5 -41.5t23.5 -71q0 -88 -137 -115q47 1 76 -9.5t38.5 -27t15 -35.5t7 -35t12.5 -25t33 -5v-136q-56 -8 -99 0.5t-67.5 27t-39.5 46t-20 53t-5 54.5q0 17 -11.5 29t-33.5 12h-27v-86h47v-136h-264zM266 1403h41 q45 0 45 35q0 14 -12 24.5t-33 10.5h-41v-70z" />
<glyph unicode="&#xaf;" horiz-adv-x="720" d="M33 1333v242h645v-242h-645z" />
<glyph unicode="&#xb0;" horiz-adv-x="684" d="M18 1231q0 154 109.5 263.5t263.5 109.5t263.5 -109.5t109.5 -263.5t-109.5 -263.5t-263.5 -109.5t-263.5 109.5t-109.5 263.5zM219 1231q0 -69 51 -120.5t121 -51.5q69 0 120.5 51.5t51.5 120.5q0 70 -51.5 121t-120.5 51q-71 0 -121.5 -50.5t-50.5 -121.5z" />
<glyph unicode="&#xb1;" horiz-adv-x="720" d="M33 94v242h645v-242h-645zM33 580v241h200v201h242v-201h203v-241h-203v-203h-242v203h-200z" />
<glyph unicode="&#xb2;" horiz-adv-x="491" d="M10 1438q0 74 60.5 120t171.5 46q91 0 149 -46t58 -114q0 -52 -32.5 -96t-81.5 -71t-81 -40t-57 -20q138 24 247 24v-156h-397v111q10 4 25.5 10.5t56.5 29t72 46t56.5 60t25.5 73.5q0 27 -16.5 42.5t-43.5 15.5q-35 0 -50 -21.5t-5 -44.5t37 -27l-23 -86h-18.5t-41 6.5 t-52.5 20t-41.5 44t-18.5 73.5z" />
<glyph unicode="&#xb3;" horiz-adv-x="489" d="M-2 1137v116h147q3 -23 23.5 -36t46.5 -13q25 0 42 14t17 39q0 26 -18 40t-45 14h-25v63h17q67 0 67 60q0 25 -18 40t-45 15q-24 0 -41.5 -13t-20.5 -36h-139v116q9 6 25 14t68 22t108 14q108 0 172.5 -38.5t64.5 -105.5q0 -96 -122 -116q10 0 27.5 -4t42.5 -15t43 -36.5 t18 -61.5q0 -74 -61 -109t-185 -35q-56 0 -108 13t-77 26z" />
<glyph unicode="&#xb4;" horiz-adv-x="657" d="M27 1391l397 315l209 -309l-275 -137q-91 -43 -163 -33.5t-118 55t-50 109.5z" />
<glyph unicode="&#xb5;" horiz-adv-x="1454" d="M51 -141h111v889h-111v337h549v-661q3 -39 30 -60.5t72 -21.5q69 0 150 61v345h-113v337h553v-747h111v-338h-551v109q-105 -102 -252 -134v-454h-549v338z" />
<glyph unicode="&#xb7;" horiz-adv-x="526" d="M41 594q0 92 64 158.5t155 66.5q93 0 159 -66t66 -159q0 -95 -65.5 -159t-159.5 -64q-91 0 -155 64t-64 159z" />
<glyph unicode="&#xb8;" horiz-adv-x="745" d="M35 -299q0 45 18 81.5t46.5 59t63.5 39t69.5 24t63 12t46.5 5.5h18l2 209l236 -12l-2 -295q-11 1 -28.5 2t-63 -0.5t-80.5 -9t-63.5 -28.5t-28.5 -54q0 -40 66 -68t120 -28q35 0 75.5 8t63.5 16l23 8l39 -121q-13 -7 -35.5 -18t-91 -29t-133.5 -18q-121 0 -214 21.5 t-151.5 71.5t-58.5 124z" />
<glyph unicode="&#xb9;" horiz-adv-x="315" d="M-4 1085v162h51v150h-51v114q34 -1 60.5 8.5t39.5 23.5t21 28.5t10 24.5l2 10h102v-359h48v-162h-283z" />
<glyph unicode="&#xba;" horiz-adv-x="591" d="M35 1341q0 107 77.5 185t184.5 78t185.5 -78t78.5 -185t-78.5 -185.5t-185.5 -78.5t-184.5 78.5t-77.5 185.5zM211 1341q0 -37 25.5 -62.5t60.5 -25.5q37 0 62.5 25.5t25.5 62.5q0 35 -25.5 60.5t-62.5 25.5q-35 0 -60.5 -25.5t-25.5 -60.5z" />
<glyph unicode="&#xbb;" horiz-adv-x="1028" d="M43 72v293l262 170l-262 167v293l446 -286v-351zM541 72v293l262 170l-262 167v293l489 -315v-293z" />
<glyph unicode="&#xbc;" horiz-adv-x="1902" d="M49 756v198q61 -2 107.5 14t69 40.5t37 49.5t17.5 42l3 18h176v-624h82v-283h-490v283h86v262h-88zM365 -90l892 1335l140 -88l-891 -1339zM915 4v283l525 624h297v-624h104v-283h-104v-250h-330v250h-492zM1182 258h225v285z" />
<glyph unicode="&#xbd;" horiz-adv-x="2000" d="M43 756v198q61 -2 107 14t69 40.5t37 49.5t17 42l3 18h177v-624h82v-283h-490v283h86v262h-88zM358 -90l893 1335l140 -88l-891 -1339zM1153 635q0 135 109.5 217t308.5 82q165 0 269 -82t104 -205q0 -54 -21.5 -104.5t-53.5 -88t-77.5 -71.5t-86.5 -56.5t-87.5 -42 t-72.5 -28.5t-50 -16q194 43 442 43v-281h-716v201q9 3 24.5 9.5t59.5 27.5t84.5 43.5t89.5 58.5t84.5 72.5t59.5 84t24 95.5q0 50 -30 78t-77 28q-64 0 -91.5 -38.5t-9 -79.5t67.5 -47l-41 -158h-11t-28.5 1t-42 4.5t-48.5 11.5t-52.5 19.5t-49 32t-42 45.5t-28.5 62.5 t-11 81.5z" />
<glyph unicode="&#xbe;" horiz-adv-x="2095" d="M43 276v216h272q4 -42 43.5 -67.5t85.5 -25.5t78.5 27t32.5 74q0 48 -33.5 72t-83.5 24h-47v119h31q55 0 91 27.5t36 82.5q0 46 -34.5 74.5t-86.5 28.5q-44 0 -76.5 -24.5t-36.5 -67.5h-258v217q6 4 16.5 10t47.5 21.5t77 27.5t102.5 21.5t127.5 9.5q201 0 319.5 -70.5 t118.5 -195.5q0 -51 -20 -91.5t-46 -62t-61.5 -36.5t-55 -19t-36.5 -6q20 -2 40 -6t58.5 -18.5t66 -36.5t49.5 -63t22 -94q0 -138 -111.5 -200t-343.5 -62q-103 0 -199 23.5t-141 46.5zM641 -90l893 1335l139 -88l-891 -1339zM1126 2v283l525 624h297v-624h104v-283h-104 v-250h-330v250h-492zM1393 256h225v285z" />
<glyph unicode="&#xbf;" horiz-adv-x="997" d="M35 -141q0 77 21.5 141t56.5 107t76.5 79.5t83.5 67t77 60t56.5 68t21.5 83.5v143h346v-205q0 -58 -19.5 -106t-50.5 -81.5t-69 -62.5t-76 -57t-69 -57t-50.5 -70t-19.5 -90q0 -119 143 -119q34 0 62 9.5t43.5 22.5t25.5 26t14 22l3 10h297v-270q-8 -4 -23.5 -10.5 t-64 -23.5t-98.5 -30t-121 -23.5t-138 -10.5q-528 0 -528 377zM385 903q0 92 63 153.5t154 61.5q88 0 149.5 -61.5t61.5 -153.5q0 -89 -61.5 -153t-149.5 -64q-90 0 -153.5 63.5t-63.5 153.5z" />
<glyph unicode="&#xc0;" horiz-adv-x="1345" d="M14 -2v338h49l390 995h438l389 -995h47v-338h-549v338h64l-33 84h-274l-33 -84h67v-338h-555zM281 1538l208 309l398 -315q-4 -64 -50 -110t-118.5 -55t-163.5 34zM588 557h168l-84 213z" />
<glyph unicode="&#xc1;" horiz-adv-x="1345" d="M14 -2v338h49l390 995h438l389 -995h47v-338h-549v338h64l-33 84h-274l-33 -84h67v-338h-555zM457 1550l397 316l209 -310l-275 -137q-91 -43 -163 -33.5t-118 55t-50 109.5zM588 557h168l-84 213z" />
<glyph unicode="&#xc2;" horiz-adv-x="1345" d="M14 -2v338h49l390 995h438l389 -995h47v-338h-549v338h64l-33 84h-274l-33 -84h67v-338h-555zM291 1468l246 336q46 63 135.5 63.5t136.5 -63.5l248 -336q-17 -56 -69 -80t-105.5 -14.5t-83.5 41.5l-125 135l-125 -135q-30 -32 -83.5 -41.5t-105.5 14.5t-69 80zM588 557 h168l-84 213z" />
<glyph unicode="&#xc3;" horiz-adv-x="1345" d="M14 -2v338h49l390 995h438l389 -995h47v-338h-549v338h64l-33 84h-274l-33 -84h67v-338h-555zM121 1761h270q0 -43 26.5 -74.5t69.5 -31.5q44 0 91 19.5t84.5 43t100 43t132.5 19.5q90 0 156.5 -31t104 -86t55.5 -121.5t18 -146.5h-271q0 43 -26.5 74.5t-69.5 31.5 q-44 0 -91 -19.5t-84 -43t-99.5 -43t-132.5 -19.5q-90 0 -156.5 31t-104 86t-55.5 121.5t-18 146.5zM588 557h168l-84 213z" />
<glyph unicode="&#xc4;" horiz-adv-x="1345" d="M14 -2v338h49l390 995h438l389 -995h47v-338h-549v338h64l-33 84h-274l-33 -84h67v-338h-555zM229 1573q0 78 54.5 133t132.5 55t133 -55t55 -133t-55 -132.5t-133 -54.5t-132.5 54.5t-54.5 132.5zM588 557h168l-84 213zM741 1573q0 78 54.5 133t132.5 55t133 -55 t55 -133t-55 -132.5t-133 -54.5t-132.5 54.5t-54.5 132.5z" />
<glyph unicode="&#xc5;" horiz-adv-x="1345" d="M14 -2v338h49l390 995h438l389 -995h47v-338h-549v338h64l-33 84h-274l-33 -84h67v-338h-555zM479 1591q0 88 62.5 150.5t150.5 62.5t150.5 -62.5t62.5 -150.5t-62.5 -150.5t-150.5 -62.5t-150.5 62.5t-62.5 150.5zM588 557h168l-84 213zM594 1591q0 -40 29 -69t69 -29 t69.5 29t29.5 69t-29.5 69.5t-69.5 29.5t-69 -29.5t-29 -69.5z" />
<glyph unicode="&#xc6;" horiz-adv-x="1867" d="M20 -2v338h50l608 975h1153v-480h-338v142h-270v-178h270v-240h-270v-217h270v180h338v-518h-1155v338h110v82h-227l-51 -84h67v-338h-555zM645 557h141v225z" />
<glyph unicode="&#xc7;" horiz-adv-x="1243" d="M53 674q0 139 34 252.5t92.5 190.5t139.5 129.5t173 76t196 23.5q92 0 177 -15t141 -36.5t98.5 -43t61.5 -36.5l20 -15v-315h-340q-1 5 -3.5 13.5t-13.5 29.5t-26.5 37t-45.5 29.5t-67 13.5q-88 0 -140 -84t-52 -244q0 -102 24.5 -177t68 -116.5t95.5 -60.5t115 -19 q76 0 161.5 18t133.5 36l47 18l61 -313q-166 -73 -364 -93v-149q-11 1 -29 2t-63.5 -0.5t-80.5 -9t-63.5 -28.5t-28.5 -54q0 -40 66.5 -68t120.5 -28q35 0 75.5 8t63.5 16l23 8l39 -121q-13 -7 -36 -18t-91.5 -29t-133.5 -18q-121 0 -213.5 21.5t-151 71.5t-58.5 124 q0 62 33.5 107.5t81 66t95.5 32.5t81 13l34 2v51q-91 11 -169.5 39.5t-150 83.5t-122 132t-80 191t-29.5 255z" />
<glyph unicode="&#xc8;" horiz-adv-x="1216" d="M51 0v338h111v635h-109v338h1153v-480h-338v142h-270v-178h270v-240h-270v-217h270v180h338v-518h-1155zM281 1548l208 310l398 -316q-4 -64 -50 -110t-118.5 -55t-163.5 34z" />
<glyph unicode="&#xc9;" horiz-adv-x="1216" d="M51 0v338h111v635h-109v338h1153v-480h-338v142h-270v-178h270v-240h-270v-217h270v180h338v-518h-1155zM403 1542l398 316l209 -310l-275 -137q-91 -43 -163.5 -34t-118.5 55t-50 110z" />
<glyph unicode="&#xca;" horiz-adv-x="1216" d="M51 0v338h111v635h-109v338h1153v-480h-338v142h-270v-178h270v-240h-270v-217h270v180h338v-518h-1155zM272 1464l246 336q46 63 136 63.5t137 -63.5l247 -336q-17 -56 -69 -80t-105.5 -14.5t-83.5 41.5l-125 135l-125 -135q-30 -32 -83.5 -41.5t-105.5 14.5t-69 80z " />
<glyph unicode="&#xcb;" horiz-adv-x="1216" d="M51 0v338h111v635h-109v338h1153v-480h-338v142h-270v-178h270v-240h-270v-217h270v180h338v-518h-1155zM205 1546q0 78 54 133.5t132 55.5t133.5 -55.5t55.5 -133.5t-55.5 -132t-133.5 -54t-132 54t-54 132zM717 1546q0 78 54 133.5t132 55.5t133.5 -55.5t55.5 -133.5 t-55.5 -132t-133.5 -54t-132 54t-54 132z" />
<glyph unicode="&#xcc;" horiz-adv-x="765" d="M51 0v338h111v635h-111v338h658v-338h-111v-635h109v-338h-656zM72 1542l209 309l397 -315q-4 -64 -50 -110t-118.5 -55t-163.5 34z" />
<glyph unicode="&#xcd;" horiz-adv-x="765" d="M51 0v338h111v635h-111v338h658v-338h-111v-635h109v-338h-656zM96 1536l398 315l208 -309l-274 -137q-91 -43 -163.5 -34t-118.5 55t-50 110z" />
<glyph unicode="&#xce;" horiz-adv-x="765" d="M-20 1460l245 336q46 63 136 63.5t137 -63.5l247 -336q-17 -56 -69 -80t-105.5 -14.5t-83.5 41.5l-125 135l-124 -135q-30 -32 -83.5 -41.5t-105.5 14.5t-69 80zM51 0v338h111v635h-111v338h658v-338h-111v-635h109v-338h-656z" />
<glyph unicode="&#xcf;" horiz-adv-x="765" d="M-63 1548q0 78 54 133.5t132 55.5t133 -55.5t55 -133.5t-55 -132t-133 -54t-132 54t-54 132zM51 0h656v338h-109v635h111v338h-658v-338h111v-635h-111v-338zM449 1548q0 78 54 133.5t132 55.5t133 -55.5t55 -133.5t-55 -132t-133 -54t-132 54t-54 132z" />
<glyph unicode="&#xd0;" horiz-adv-x="1216" d="M66 0v338h110v188h-108v242h108v205h-108v338h544q142 0 270 -49t221.5 -134.5t148.5 -208.5t55 -264q0 -187 -93.5 -338t-252.5 -234t-349 -83h-546zM612 338q47 5 90.5 25t82 56.5t62 97.5t23.5 138t-22 138t-59.5 97.5t-82 56.5t-94.5 24v-203h125v-242h-125v-188z " />
<glyph unicode="&#xd1;" horiz-adv-x="1615" d="M51 0v338h111v635h-111v338h531l436 -744v406h-111v338h658v-338h-111v-635h109v-338h-537l-428 731v-393h109v-338h-656zM266 1737h271q0 -43 26.5 -75t69.5 -32q44 0 91 19.5t84 43t99.5 43t132.5 19.5q90 0 156.5 -31t104 -86t55.5 -121.5t18 -146.5h-270 q0 43 -26.5 75t-69.5 32q-44 0 -91 -19.5t-84.5 -43t-100 -43t-132.5 -19.5q-90 0 -156.5 31t-104 86t-55.5 121.5t-18 146.5z" />
<glyph unicode="&#xd2;" d="M23 647q0 144 38.5 262.5t102.5 197.5t150 132.5t177 77.5t187 24t187 -24t177 -77.5t150 -132.5t102.5 -197.5t38.5 -262.5t-38.5 -261.5t-102.5 -194.5t-150 -129t-177 -74.5t-187 -22.5t-187 22.5t-177 74.5t-150 129t-102.5 194.5t-38.5 261.5zM285 1546l209 309 l397 -315q-4 -64 -50 -110t-118.5 -55t-163.5 34zM492 647q0 -193 52.5 -285t133.5 -92t133.5 92t52.5 285q0 194 -53 291.5t-133 97.5t-133 -97.5t-53 -291.5z" />
<glyph unicode="&#xd3;" d="M23 647q0 144 38.5 262.5t102.5 197.5t150 132.5t177 77.5t187 24t187 -24t177 -77.5t150 -132.5t102.5 -197.5t38.5 -262.5t-38.5 -261.5t-102.5 -194.5t-150 -129t-177 -74.5t-187 -22.5t-187 22.5t-177 74.5t-150 129t-102.5 194.5t-38.5 261.5zM377 1536l397 315 l209 -309l-274 -137q-91 -43 -163.5 -34t-118.5 55t-50 110zM492 647q0 -193 52.5 -285t133.5 -92t133.5 92t52.5 285q0 194 -53 291.5t-133 97.5t-133 -97.5t-53 -291.5z" />
<glyph unicode="&#xd4;" d="M23 647q0 144 38.5 262.5t102.5 197.5t150 132.5t177 77.5t187 24t187 -24t177 -77.5t150 -132.5t102.5 -197.5t38.5 -262.5t-38.5 -261.5t-102.5 -194.5t-150 -129t-177 -74.5t-187 -22.5t-187 22.5t-177 74.5t-150 129t-102.5 194.5t-38.5 261.5zM295 1464l246 336 q46 63 135.5 63.5t136.5 -63.5l248 -336q-17 -56 -69 -80t-105.5 -14.5t-83.5 41.5l-125 135l-125 -135q-30 -32 -83.5 -41.5t-105.5 14.5t-69 80zM492 647q0 -193 52.5 -285t133.5 -92t133.5 92t52.5 285q0 194 -53 291.5t-133 97.5t-133 -97.5t-53 -291.5z" />
<glyph unicode="&#xd5;" d="M23 647q0 144 38.5 262.5t102.5 197.5t150 132.5t177 77.5t187 24t187 -24t177 -77.5t150 -132.5t102.5 -197.5t38.5 -262.5t-38.5 -261.5t-102.5 -194.5t-150 -129t-177 -74.5t-187 -22.5t-187 22.5t-177 74.5t-150 129t-102.5 194.5t-38.5 261.5zM150 1739h270 q0 -43 26.5 -75t69.5 -32q44 0 91 19.5t84.5 43t100 43t132.5 19.5q90 0 156 -31t104 -86t55.5 -121.5t17.5 -146.5h-270q0 43 -26.5 75t-69.5 32q-44 0 -91 -19.5t-84.5 -43t-100 -43t-132.5 -19.5q-90 0 -156 31t-104 86t-55.5 121.5t-17.5 146.5zM492 647 q0 -193 52.5 -285t133.5 -92t133.5 92t52.5 285q0 194 -53 291.5t-133 97.5t-133 -97.5t-53 -291.5z" />
<glyph unicode="&#xd6;" d="M23 647q0 144 38.5 262.5t102.5 197.5t150 132.5t177 77.5t187 24t187 -24t177 -77.5t150 -132.5t102.5 -197.5t38.5 -262.5t-38.5 -261.5t-102.5 -194.5t-150 -129t-177 -74.5t-187 -22.5t-187 22.5t-177 74.5t-150 129t-102.5 194.5t-38.5 261.5zM236 1548 q0 78 54 133.5t132 55.5t133 -55.5t55 -133.5t-55 -132t-133 -54t-132 54t-54 132zM492 647q0 -193 52.5 -285t133.5 -92t133.5 92t52.5 285q0 194 -53 291.5t-133 97.5t-133 -97.5t-53 -291.5zM748 1548q0 78 54 133.5t132 55.5t133 -55.5t55 -133.5t-55 -132t-133 -54 t-132 54t-54 132z" />
<glyph unicode="&#xd7;" horiz-adv-x="970" d="M80 272l235 236l-235 235l172 172l235 -235l236 235l172 -172l-236 -235l236 -236l-172 -172l-236 236l-235 -236z" />
<glyph unicode="&#xd8;" d="M23 647q0 144 38.5 262.5t102.5 197.5t150 132.5t177 77.5t187 24t187 -24t177 -77.5t150 -132.5t102.5 -197.5t38.5 -262.5t-38.5 -261.5t-102.5 -194.5t-150 -129t-177 -74.5t-187 -22.5t-187 22.5t-177 74.5t-150 129t-102.5 194.5t-38.5 261.5zM492 647 q0 -193 52.5 -285t133.5 -92t133.5 92t52.5 285q0 194 -53 291.5t-133 97.5t-133 -97.5t-53 -291.5z" />
<glyph unicode="&#xd9;" horiz-adv-x="1486" d="M51 973v338h658v-338h-111v-510q0 -74 39.5 -123t110.5 -49q73 0 111 48.5t38 123.5v510h-111v338h658v-338h-111v-522q0 -219 -153 -335t-432 -116t-432.5 116t-153.5 335v522h-111zM319 1546l209 309l398 -315q-4 -64 -50 -110t-118.5 -55t-163.5 34z" />
<glyph unicode="&#xda;" horiz-adv-x="1486" d="M51 973v338h658v-338h-111v-510q0 -74 39.5 -123t110.5 -49q73 0 111 48.5t38 123.5v510h-111v338h658v-338h-111v-522q0 -219 -153 -335t-432 -116t-432.5 116t-153.5 335v522h-111zM532 1540l398 315l209 -309l-275 -137q-91 -43 -163.5 -34t-118.5 55t-50 110z" />
<glyph unicode="&#xdb;" horiz-adv-x="1486" d="M51 973v338h658v-338h-111v-510q0 -74 39.5 -123t110.5 -49q73 0 111 48.5t38 123.5v510h-111v338h658v-338h-111v-522q0 -219 -153 -335t-432 -116t-432.5 116t-153.5 335v522h-111zM373 1470l245 336q46 63 136 63.5t137 -63.5l248 -336q-17 -56 -69 -80t-105.5 -14.5 t-83.5 41.5l-125 135l-125 -135q-30 -32 -83.5 -41.5t-105.5 14.5t-69 80z" />
<glyph unicode="&#xdc;" horiz-adv-x="1486" d="M51 973h111v-522q0 -219 153.5 -335t432.5 -116t432 116t153 335v522h111v338h-658v-338h111v-510q0 -75 -38 -123.5t-111 -48.5q-71 0 -110.5 49t-39.5 123v510h111v338h-658v-338zM303 1552q0 78 54 133.5t132 55.5t133.5 -55.5t55.5 -133.5t-55.5 -132t-133.5 -54 t-132 54t-54 132zM815 1552q0 78 54 133.5t132 55.5t133.5 -55.5t55.5 -133.5t-55.5 -132t-133.5 -54t-132 54t-54 132z" />
<glyph unicode="&#xdd;" horiz-adv-x="1259" d="M43 973v338h549v-338h-64l103 -182l102 182h-67v338h555v-338h-50l-321 -570h-2v-65h108v-338h-655v338h111v65l-322 570h-47zM440 1542l398 316l209 -310l-275 -137q-91 -43 -163.5 -34t-118.5 55t-50 110z" />
<glyph unicode="&#xde;" horiz-adv-x="1284" d="M51 0v338h113v887h-113v338h547v-252h209q74 0 142.5 -16.5t130 -51.5t106.5 -85.5t71.5 -124.5t26.5 -163q0 -106 -37.5 -188t-100.5 -130t-138.5 -72.5t-159.5 -24.5h-250v-117h113v-338h-660zM598 770h147q43 0 73 29.5t30 70.5q0 43 -30 73t-73 30h-147v-203z" />
<glyph unicode="&#xdf;" horiz-adv-x="1902" d="M51 0v338h111v410h-111v337h109v101q0 201 167 309.5t490 108.5q94 0 177.5 -9.5t167 -35t143.5 -65t97.5 -105t37.5 -150.5q0 -63 -15.5 -115.5t-38.5 -86.5t-50.5 -67t-50.5 -57.5t-38.5 -58t-15.5 -70.5q0 -35 27.5 -57.5t72 -33t102 -22.5t117 -22t117 -34.5 t102 -58.5t72 -94.5t27.5 -142.5q0 -163 -142.5 -259.5t-367.5 -96.5q-88 0 -175 10t-148.5 24.5t-111 29t-73.5 24.5l-25 10v271h361q1 -5 3 -12t12 -26.5t24.5 -34t43 -26.5t64.5 -12q51 0 84 27t33 63q0 32 -21.5 53.5t-57.5 32.5t-83.5 18.5t-99 16t-103.5 20t-99.5 35 t-83.5 57.5t-57.5 91t-21.5 131q0 54 21.5 103.5t52.5 86.5t61.5 72.5t52 76.5t21.5 83q0 63 -54 107t-159 44q-114 0 -167.5 -43.5t-53.5 -107.5q0 -75 -4 -211l4 2v-641h147v-338h-694z" />
<glyph unicode="&#xe0;" horiz-adv-x="1384" d="M41 510q0 131 35 235t95 172.5t145.5 114t182.5 65t210 19.5q126 0 257 -29t199 -57l68 -29v-589q0 -56 29.5 -70.5t80.5 -3.5v-330q-9 -5 -27 -12t-79 -19t-129 -12q-179 0 -258 119q-149 -119 -328 -119q-97 0 -181.5 32.5t-152.5 96.5t-107.5 171t-39.5 245zM342 1397 l209 309l397 -315q-4 -64 -50 -110t-118.5 -55t-163.5 34zM477 545q0 -281 180 -281q61 0 140 31v498q-57 28 -125 28q-37 0 -69 -12.5t-61.5 -42t-47 -86t-17.5 -135.5z" />
<glyph unicode="&#xe1;" horiz-adv-x="1384" d="M41 510q0 131 35 235t95 172.5t145.5 114t182.5 65t210 19.5q126 0 257 -29t199 -57l68 -29v-589q0 -56 29.5 -70.5t80.5 -3.5v-330q-9 -5 -27 -12t-79 -19t-129 -12q-179 0 -258 119q-149 -119 -328 -119q-97 0 -181.5 32.5t-152.5 96.5t-107.5 171t-39.5 245zM440 1391 l398 315l209 -309l-275 -137q-91 -43 -163.5 -34t-118.5 55t-50 110zM477 545q0 -281 180 -281q61 0 140 31v498q-57 28 -125 28q-37 0 -69 -12.5t-61.5 -42t-47 -86t-17.5 -135.5z" />
<glyph unicode="&#xe2;" horiz-adv-x="1384" d="M41 510q0 131 35 235t95 172.5t145.5 114t182.5 65t210 19.5q126 0 257 -29t199 -57l68 -29v-589q0 -56 29.5 -70.5t80.5 -3.5v-330q-9 -5 -27 -12t-79 -19t-129 -12q-179 0 -258 119q-149 -119 -328 -119q-97 0 -181.5 32.5t-152.5 96.5t-107.5 171t-39.5 245zM291 1323 l246 336q46 63 135.5 63.5t136.5 -63.5l248 -336q-17 -56 -69 -80t-105.5 -14.5t-83.5 41.5l-125 135l-125 -135q-30 -32 -83.5 -41.5t-105.5 14.5t-69 80zM477 545q0 -281 180 -281q61 0 140 31v498q-57 28 -125 28q-37 0 -69 -12.5t-61.5 -42t-47 -86t-17.5 -135.5z" />
<glyph unicode="&#xe3;" horiz-adv-x="1384" d="M41 510q0 131 35 235t95 172.5t145.5 114t182.5 65t210 19.5q126 0 257 -29t199 -57l68 -29v-589q0 -56 29.5 -70.5t80.5 -3.5v-330q-9 -5 -27 -12t-79 -19t-129 -12q-179 0 -258 119q-149 -119 -328 -119q-97 0 -181.5 32.5t-152.5 96.5t-107.5 171t-39.5 245zM125 1616 h270q0 -43 27 -75t70 -32q44 0 91 19.5t84 43t99.5 43t132.5 19.5q90 0 156.5 -31t104 -86t55.5 -121.5t18 -146.5h-270q0 43 -27 75t-70 32q-44 0 -91 -19.5t-84 -43t-99.5 -43t-132.5 -19.5q-90 0 -156.5 31t-104 86t-55.5 121.5t-18 146.5zM477 545q0 -281 180 -281 q61 0 140 31v498q-57 28 -125 28q-37 0 -69 -12.5t-61.5 -42t-47 -86t-17.5 -135.5z" />
<glyph unicode="&#xe4;" horiz-adv-x="1384" d="M41 510q0 -138 39.5 -245t107.5 -171t152.5 -96.5t181.5 -32.5q179 0 328 119q79 -119 258 -119q68 0 126.5 10.5t83.5 21.5l25 11v330q-51 -11 -80.5 3.5t-29.5 70.5v589q-10 5 -28 12.5t-74.5 27.5t-115 35t-143 27.5t-163.5 12.5q-113 0 -210 -19.5t-182.5 -65 t-145.5 -114t-95 -172.5t-35 -235zM293 1415q0 78 54 133.5t132 55.5t133.5 -55.5t55.5 -133.5t-55.5 -132t-133.5 -54t-132 54t-54 132zM477 545q0 79 17.5 135.5t47 86t61.5 42t69 12.5q30 0 61.5 -7t47.5 -14l16 -7v-498q-79 -31 -140 -31q-180 0 -180 281zM805 1415 q0 78 54 133.5t132 55.5t133.5 -55.5t55.5 -133.5t-55.5 -132t-133.5 -54t-132 54t-54 132z" />
<glyph unicode="&#xe5;" horiz-adv-x="1384" d="M41 510q0 131 35 235t95 172.5t145.5 114t182.5 65t210 19.5q126 0 257 -29t199 -57l68 -29v-589q0 -56 29.5 -70.5t80.5 -3.5v-330q-9 -5 -27 -12t-79 -19t-129 -12q-179 0 -258 119q-149 -119 -328 -119q-97 0 -181.5 32.5t-152.5 96.5t-107.5 171t-39.5 245zM440 1391 q0 88 62.5 150.5t150.5 62.5t150.5 -62.5t62.5 -150.5t-62.5 -150.5t-150.5 -62.5t-150.5 62.5t-62.5 150.5zM477 545q0 -281 180 -281q61 0 140 31v498q-57 28 -125 28q-37 0 -69 -12.5t-61.5 -42t-47 -86t-17.5 -135.5zM555 1391q0 -40 29 -69.5t69 -29.5t69.5 29.5 t29.5 69.5t-29.5 69t-69.5 29t-69 -29t-29 -69z" />
<glyph unicode="&#xe6;" horiz-adv-x="2035" d="M41 283q0 55 17.5 97t45 70t72 48.5t89 31t105.5 18.5t112 12t118.5 10t114.5 12v143q0 59 -37 85t-94 26q-29 0 -52 -8.5t-35 -21t-20 -25t-10 -21.5l-2 -8h-350v270q7 4 21 10t59 22.5t92.5 29t118.5 22.5t141 10q258 0 414 -98q157 98 374 98q142 0 253 -33.5 t182.5 -92.5t115.5 -142t59 -177.5t5 -203.5h-785q27 -211 226 -211q44 0 82.5 12.5t61.5 31t39.5 36.5t23.5 30l6 13h338l-7 -270q-5 0 -36 -15t-83.5 -36.5t-120 -43t-163.5 -36.5t-197 -15q-145 0 -274 50.5t-213 152.5q-35 -34 -76 -64.5t-98 -62.5t-128.5 -51 t-146.5 -19q-151 0 -254.5 82t-103.5 232zM459 322q0 -26 19 -47t51.5 -30t71 -7t82.5 21t81 54q-23 64 -31 127q-29 -4 -63.5 -9t-54.5 -7.5t-44 -6t-37 -7t-28 -9t-22 -12t-13.5 -16.5t-9 -22.5t-2.5 -28.5zM1163 600h348q0 116 -40.5 168.5t-124.5 52.5q-70 0 -121 -52.5 t-62 -168.5z" />
<glyph unicode="&#xe7;" horiz-adv-x="1247" d="M41 541q0 139 49 250t133.5 181t192.5 107t231 37q91 0 177.5 -14t145.5 -34t105 -40.5t68 -34.5l22 -14v-311h-340q-1 6 -3 15t-12.5 32.5t-26 41.5t-47 33t-72.5 15q-87 0 -137 -63.5t-50 -174.5q0 -125 80 -193.5t209 -68.5q80 0 167 27.5t134 54.5l47 27l86 -293 q-6 -5 -17.5 -13.5t-50.5 -31.5t-82 -42t-111.5 -38t-139.5 -27v-145q-11 1 -28.5 2t-63 -0.5t-80.5 -9t-63.5 -28.5t-28.5 -54q0 -50 63.5 -74.5t145 -20t139.5 30.5l39 -133q-79 -38 -196 -49.5t-225.5 4t-185.5 70.5t-77 139q0 62 33.5 107.5t81 66t95.5 32.5t82 13l33 2 v51q-256 31 -389 175.5t-133 392.5z" />
<glyph unicode="&#xe8;" horiz-adv-x="1310" d="M41 541q0 123 34.5 221.5t92.5 163.5t137.5 108.5t165.5 62.5t180 19q142 0 252.5 -30.5t182.5 -85t116 -132.5t59 -169.5t5 -200.5h-779q17 -70 66.5 -114.5t109.5 -60.5t134 -16q87 0 185.5 28.5t153.5 56.5l56 28l76 -299q-8 -6 -23.5 -17t-69 -38t-112.5 -48 t-153 -38t-193 -17q-143 0 -262.5 33t-213.5 100.5t-147 181t-53 263.5zM360 1397l209 309l398 -315q-4 -64 -50 -110t-118.5 -55t-163.5 34zM481 631h346q0 112 -38.5 151t-126.5 39q-33 0 -59 -7t-53 -26t-45 -58.5t-24 -98.5z" />
<glyph unicode="&#xe9;" horiz-adv-x="1310" d="M41 541q0 123 34.5 221.5t92.5 163.5t137.5 108.5t165.5 62.5t180 19q142 0 252.5 -30.5t182.5 -85t116 -132.5t59 -169.5t5 -200.5h-779q17 -70 66.5 -114.5t109.5 -60.5t134 -16q87 0 185.5 28.5t153.5 56.5l56 28l76 -299q-8 -6 -23.5 -17t-69 -38t-112.5 -48 t-153 -38t-193 -17q-143 0 -262.5 33t-213.5 100.5t-147 181t-53 263.5zM365 1391l397 315l209 -309l-275 -137q-91 -43 -163 -33.5t-118 55t-50 109.5zM481 631h346q0 112 -38.5 151t-126.5 39q-33 0 -59 -7t-53 -26t-45 -58.5t-24 -98.5z" />
<glyph unicode="&#xea;" horiz-adv-x="1310" d="M41 541q0 123 34.5 221.5t92.5 163.5t137.5 108.5t165.5 62.5t180 19q142 0 252.5 -30.5t182.5 -85t116 -132.5t59 -169.5t5 -200.5h-779q17 -70 66.5 -114.5t109.5 -60.5t134 -16q87 0 185.5 28.5t153.5 56.5l56 28l76 -299q-8 -6 -23.5 -17t-69 -38t-112.5 -48 t-153 -38t-193 -17q-143 0 -262.5 33t-213.5 100.5t-147 181t-53 263.5zM283 1323l245 336q46 63 136 63.5t137 -63.5l248 -336q-17 -56 -69 -80t-105.5 -14.5t-83.5 41.5l-125 135l-125 -135q-30 -32 -83.5 -41.5t-105.5 14.5t-69 80zM481 631h346q0 112 -38.5 151 t-126.5 39q-33 0 -59 -7t-53 -26t-45 -58.5t-24 -98.5z" />
<glyph unicode="&#xeb;" horiz-adv-x="1310" d="M41 541q0 -150 53 -263.5t147 -181t213.5 -100.5t262.5 -33q99 0 192 16.5t155 39.5t110.5 46t71.5 39l22 17l-76 299q-8 -5 -22.5 -12.5t-59.5 -27t-90 -34.5t-106.5 -27t-116.5 -12q-74 0 -134 16t-109.5 60.5t-66.5 114.5h779q10 109 -5 200.5t-59 169.5t-116 132.5 t-182.5 85t-252.5 30.5q-94 0 -180 -19t-165.5 -62.5t-137.5 -108.5t-92.5 -163.5t-34.5 -221.5zM225 1415q0 78 54.5 133.5t132.5 55.5t133 -55.5t55 -133.5t-55 -132t-133 -54t-132.5 54t-54.5 132zM481 631q6 59 24 98.5t45 58.5t53 26t59 7q88 0 126.5 -39t38.5 -151 h-346zM737 1415q0 78 54.5 133.5t132.5 55.5t133 -55.5t55 -133.5t-55 -132t-133 -54t-132.5 54t-54.5 132z" />
<glyph unicode="&#xec;" horiz-adv-x="759" d="M-33 1397l209 309l397 -315q-4 -64 -50 -109.5t-118 -55t-163 33.5zM51 0v338h111v410h-111v337h547v-747h111v-338h-658z" />
<glyph unicode="&#xed;" horiz-adv-x="759" d="M51 0v338h111v410h-111v337h547v-747h111v-338h-658zM129 1391l397 315l209 -309l-274 -137q-91 -43 -163.5 -34t-118.5 55t-50 110z" />
<glyph unicode="&#xee;" horiz-adv-x="759" d="M-20 1323l245 336q46 63 136 63.5t137 -63.5l247 -336q-17 -56 -69 -80t-105.5 -14.5t-83.5 41.5l-125 135l-124 -135q-30 -32 -83.5 -41.5t-105.5 14.5t-69 80zM51 0v338h111v410h-111v337h547v-747h111v-338h-658z" />
<glyph unicode="&#xef;" horiz-adv-x="759" d="M-84 1415q0 78 54 133.5t132 55.5t133.5 -55.5t55.5 -133.5t-55.5 -132t-133.5 -54t-132 54t-54 132zM51 0h658v338h-111v747h-547v-337h111v-410h-111v-338zM428 1415q0 78 54 133.5t132 55.5t133.5 -55.5t55.5 -133.5t-55.5 -132t-133.5 -54t-132 54t-54 132z" />
<glyph unicode="&#xf0;" horiz-adv-x="1112" d="M18 389q0 111 38 200t98.5 143t136.5 85t151 32.5t143.5 -21t112.5 -68.5q11 72 -14.5 147.5t-78.5 125.5t-113 50q-17 0 -41 -4l-150 -243l-205 127l39 63h-80v217q110 57 264 84l121 197l205 -127l-39 -64q228 -35 354.5 -198.5t126.5 -456.5q0 -357 -136 -534 t-437 -177q-135 0 -248 52.5t-180.5 150t-67.5 219.5zM389 451q0 -213 156 -213q155 0 155 213q0 110 -42.5 160.5t-112.5 50.5t-113 -50.5t-43 -160.5z" />
<glyph unicode="&#xf1;" horiz-adv-x="1474" d="M51 0v338h113v410h-113v337h547v-124q168 155 395 155q67 0 122 -23t91 -60t60.5 -85.5t35.5 -98.5t11 -101v-410h110v-338h-663v338h114v307q0 45 -27 71.5t-69 26.5q-81 0 -180 -69v-336h117v-338h-664zM121 1616h270q0 -43 26.5 -75t69.5 -32q44 0 91 19.5t84.5 43 t100 43t132.5 19.5q90 0 156.5 -31t104 -86t55.5 -121.5t18 -146.5h-271q0 43 -26.5 75t-69.5 32q-44 0 -91 -19.5t-84 -43t-99.5 -43t-132.5 -19.5q-90 0 -156.5 31t-104 86t-55.5 121.5t-18 146.5z" />
<glyph unicode="&#xf2;" horiz-adv-x="1306" d="M41 541q0 141 48 251.5t132 180t193.5 105.5t238.5 36t238.5 -35t194 -103.5t132.5 -180t48 -254.5q0 -139 -48 -250.5t-132 -182t-194.5 -108t-238.5 -37.5t-238.5 37.5t-194 108.5t-131.5 182.5t-48 249.5zM346 1397l209 309l397 -315q-4 -64 -50 -109.5t-118 -55 t-163 33.5zM473 541q0 -136 49 -205.5t127 -69.5t128 69.5t50 205.5q0 140 -48 209t-130 69q-78 0 -127 -69.5t-49 -208.5z" />
<glyph unicode="&#xf3;" horiz-adv-x="1306" d="M41 541q0 141 48 251.5t132 180t193.5 105.5t238.5 36t238.5 -35t194 -103.5t132.5 -180t48 -254.5q0 -139 -48 -250.5t-132 -182t-194.5 -108t-238.5 -37.5t-238.5 37.5t-194 108.5t-131.5 182.5t-48 249.5zM348 1391l397 315l209 -309l-274 -137q-91 -43 -163.5 -34 t-118.5 55t-50 110zM473 541q0 -136 49 -205.5t127 -69.5t128 69.5t50 205.5q0 140 -48 209t-130 69q-78 0 -127 -69.5t-49 -208.5z" />
<glyph unicode="&#xf4;" horiz-adv-x="1306" d="M41 541q0 141 48 251.5t132 180t193.5 105.5t238.5 36t238.5 -35t194 -103.5t132.5 -180t48 -254.5q0 -139 -48 -250.5t-132 -182t-194.5 -108t-238.5 -37.5t-238.5 37.5t-194 108.5t-131.5 182.5t-48 249.5zM264 1323l246 336q46 63 135.5 63.5t136.5 -63.5l248 -336 q-17 -56 -69 -80t-105.5 -14.5t-83.5 41.5l-125 135l-125 -135q-30 -32 -83.5 -41.5t-105.5 14.5t-69 80zM473 541q0 -136 49 -205.5t127 -69.5t128 69.5t50 205.5q0 140 -48 209t-130 69q-78 0 -127 -69.5t-49 -208.5z" />
<glyph unicode="&#xf5;" horiz-adv-x="1306" d="M41 541q0 141 48 251.5t132 180t193.5 105.5t238.5 36t238.5 -35t194 -103.5t132.5 -180t48 -254.5q0 -139 -48 -250.5t-132 -182t-194.5 -108t-238.5 -37.5t-238.5 37.5t-194 108.5t-131.5 182.5t-48 249.5zM92 1616h270q0 -43 27 -75t70 -32q44 0 91 19.5t84 43 t99.5 43t132.5 19.5q90 0 156.5 -31t104 -86t55.5 -121.5t18 -146.5h-270q0 43 -26.5 75t-69.5 32q-44 0 -91 -19.5t-84.5 -43t-100 -43t-132.5 -19.5q-90 0 -156.5 31t-104 86t-55.5 121.5t-18 146.5zM473 541q0 -136 49 -205.5t127 -69.5t128 69.5t50 205.5q0 140 -48 209 t-130 69q-78 0 -127 -69.5t-49 -208.5z" />
<glyph unicode="&#xf6;" horiz-adv-x="1306" d="M41 541q0 141 48 251.5t132 180t193.5 105.5t238.5 36t238.5 -35t194 -103.5t132.5 -180t48 -254.5q0 -139 -48 -250.5t-132 -182t-194.5 -108t-238.5 -37.5t-238.5 37.5t-194 108.5t-131.5 182.5t-48 249.5zM205 1415q0 78 54 133.5t132 55.5t133.5 -55.5t55.5 -133.5 t-55.5 -132t-133.5 -54t-132 54t-54 132zM473 541q0 -136 49 -205.5t127 -69.5t128 69.5t50 205.5q0 140 -48 209t-130 69q-78 0 -127 -69.5t-49 -208.5zM717 1415q0 78 54 133.5t132 55.5t133.5 -55.5t55.5 -133.5t-55.5 -132t-133.5 -54t-132 54t-54 132z" />
<glyph unicode="&#xf7;" horiz-adv-x="970" d="M33 422v242h909v-242h-909zM334 152q0 74 52.5 127t125.5 53q76 0 128 -53t52 -127q0 -77 -52 -129t-128 -52q-74 0 -126 52.5t-52 128.5zM334 930q0 74 52.5 127t125.5 53q76 0 128 -53t52 -127q0 -76 -52 -128t-128 -52q-74 0 -126 52t-52 128z" />
<glyph unicode="&#xf8;" horiz-adv-x="1306" d="M41 541q0 141 48 251.5t132 180t193.5 105.5t238.5 36q49 0 95 -6l126 342l226 -86l-121 -320q135 -67 211 -193t76 -310q0 -139 -48 -250.5t-132 -182t-194.5 -108t-238.5 -37.5q-25 0 -75 4l-138 -366l-227 86l129 344q-140 67 -220.5 197t-80.5 313zM473 541 q0 -136 49 -205.5t127 -69.5t128 69.5t50 205.5q0 140 -48 209t-130 69q-78 0 -127 -69.5t-49 -208.5z" />
<glyph unicode="&#xf9;" horiz-adv-x="1454" d="M51 748v337h549v-630q0 -53 33.5 -83t81.5 -30q67 0 141 55v351h-111v337h547v-673q0 -56 30 -70.5t81 -3.5v-330q-9 -5 -27.5 -12t-79.5 -19t-129 -12q-212 0 -280 162q-55 -65 -144 -113.5t-211 -48.5q-172 0 -271 105t-99 288v390h-111zM375 1397l209 309l397 -315 q-4 -64 -50 -110t-118.5 -55t-163.5 34z" />
<glyph unicode="&#xfa;" horiz-adv-x="1454" d="M51 748v337h549v-630q0 -53 33.5 -83t81.5 -30q67 0 141 55v351h-111v337h547v-673q0 -56 30 -70.5t81 -3.5v-330q-9 -5 -27.5 -12t-79.5 -19t-129 -12q-212 0 -280 162q-55 -65 -144 -113.5t-211 -48.5q-172 0 -271 105t-99 288v390h-111zM444 1391l398 315l209 -309 l-275 -137q-91 -43 -163.5 -34t-118.5 55t-50 110z" />
<glyph unicode="&#xfb;" horiz-adv-x="1454" d="M51 748v337h549v-630q0 -53 33.5 -83t81.5 -30q67 0 141 55v351h-111v337h547v-673q0 -56 30 -70.5t81 -3.5v-330q-9 -5 -27.5 -12t-79.5 -19t-129 -12q-212 0 -280 162q-55 -65 -144 -113.5t-211 -48.5q-172 0 -271 105t-99 288v390h-111zM287 1323l245 336 q46 63 136 63.5t137 -63.5l248 -336q-17 -56 -69 -80t-105.5 -14.5t-83.5 41.5l-125 135l-125 -135q-30 -32 -83.5 -41.5t-105.5 14.5t-69 80z" />
<glyph unicode="&#xfc;" horiz-adv-x="1454" d="M51 748h111v-390q0 -183 99 -288t271 -105q122 0 211 48.5t144 113.5q68 -162 280 -162q68 0 127 10.5t84 21.5l25 11v330q-51 -11 -81 3.5t-30 70.5v673h-547v-337h111v-351q-74 -55 -141 -55q-48 0 -81.5 30t-33.5 83v630h-549v-337zM229 1415q0 78 54.5 133.5 t132.5 55.5t133 -55.5t55 -133.5t-55 -132t-133 -54t-132.5 54t-54.5 132zM741 1415q0 78 54.5 133.5t132.5 55.5t133 -55.5t55 -133.5t-55 -132t-133 -54t-132.5 54t-54.5 132z" />
<glyph unicode="&#xfd;" horiz-adv-x="1161" d="M2 748v337h551v-337h-70l99 -252l102 252h-74v337h551v-337h-49l-215 -533l-98 -244q-35 -89 -64 -150t-71 -122.5t-88.5 -98t-111 -59t-142.5 -22.5q-76 0 -146.5 8.5t-102.5 17.5l-32 9l41 299q76 -18 134.5 -19t93.5 8.5t62 33.5t39.5 46.5t26.5 57.5h-82l-301 768 h-53zM272 1391l398 315l209 -309l-275 -137q-91 -43 -163.5 -34t-118.5 55t-50 110z" />
<glyph unicode="&#xfe;" horiz-adv-x="1404" d="M61 -147h113v1372h-113v338h547v-547q143 100 310 100q71 0 134.5 -20t121 -64.5t99.5 -110t66.5 -163t24.5 -217.5t-25 -217.5t-67 -163.5t-100 -110.5t-122 -64.5t-135 -20q-167 0 -307 98v-210h117v-332h-664v332zM608 295q23 -11 47 -19t56.5 -12.5t61.5 -1.5t58 20 t50 47.5t34 84.5t13 127q0 72 -13 125.5t-34 83.5t-50 46.5t-58 19.5t-61.5 -2t-56.5 -13t-47 -19v-487z" />
<glyph unicode="&#xff;" horiz-adv-x="1161" d="M2 748h53l301 -768h82q-14 -35 -26.5 -57.5t-39.5 -46.5t-62 -33.5t-93.5 -8.5t-134.5 19l-41 -299q109 -35 281 -35q78 0 142.5 22.5t111 59t88.5 98t71 122.5t64 150l98 244l215 533h49v337h-551v-337h74l-102 -252l-99 252h70v337h-551v-337zM139 1415 q0 78 54.5 133.5t132.5 55.5t133 -55.5t55 -133.5t-55 -132t-133 -54t-132.5 54t-54.5 132zM651 1415q0 78 54.5 133.5t132.5 55.5t133 -55.5t55 -133.5t-55 -132t-133 -54t-132.5 54t-54.5 132z" />
<glyph unicode="&#x152;" horiz-adv-x="1941" d="M23 647q0 144 38.5 262.5t102.5 197.5t150 132.5t177 77.5t187 24q104 0 209 -30h999v-480h-338v142h-270v-178h270v-240h-270v-217h270v180h338v-518h-981q-106 -35 -227 -35q-96 0 -187 22.5t-177 74.5t-150 129t-102.5 194.5t-38.5 261.5zM492 647q0 -193 52.5 -285 t133.5 -92t133.5 92t52.5 285q0 194 -53 291.5t-133 97.5t-133 -97.5t-53 -291.5z" />
<glyph unicode="&#x153;" horiz-adv-x="2217" d="M41 541q0 141 48 251.5t132 180t193.5 105.5t238.5 36q292 0 459 -164q84 84 204 125t255 41q142 0 252.5 -33.5t182.5 -92.5t116 -142t58.5 -177.5t4.5 -203.5h-784q27 -211 225 -211q44 0 82.5 12.5t61.5 31t39.5 36.5t22.5 30l7 13h332v-270q-8 -6 -24 -16t-72.5 -35 t-120.5 -44t-168 -35t-215 -16q-134 0 -253.5 42t-205.5 128q-84 -84 -202.5 -127t-256.5 -43q-128 0 -238.5 37.5t-194 108.5t-131.5 182.5t-48 249.5zM473 541q0 -136 49 -205.5t127 -69.5t128 69.5t50 205.5q0 140 -48 209t-130 69q-78 0 -127 -69.5t-49 -208.5z M1399 600h348q0 115 -41 168t-125 53q-70 0 -120.5 -52.5t-61.5 -168.5z" />
<glyph unicode="&#x178;" horiz-adv-x="1259" d="M43 973h47l322 -570v-65h-111v-338h655v338h-108v65h2l321 570h50v338h-555v-338h67l-102 -182l-103 182h64v338h-549v-338zM182 1552q0 78 54.5 133.5t132.5 55.5t133 -55.5t55 -133.5t-55 -132t-133 -54t-132.5 54t-54.5 132zM694 1552q0 78 54.5 133.5t132.5 55.5 t133 -55.5t55 -133.5t-55 -132t-133 -54t-132.5 54t-54.5 132z" />
<glyph unicode="&#x2c6;" horiz-adv-x="657" d="M-55 1323l245 336q46 63 136 63.5t137 -63.5l248 -336q-17 -56 -69 -80t-105.5 -14.5t-83.5 41.5l-125 135l-125 -135q-30 -32 -83.5 -41.5t-105.5 14.5t-69 80z" />
<glyph unicode="&#x2dc;" horiz-adv-x="1185" d="M43 1616h270q0 -43 27 -75t70 -32q44 0 91 19.5t84 43t99.5 43t132.5 19.5q90 0 156.5 -31t104 -86t55.5 -121.5t18 -146.5h-270q0 43 -27 75t-70 32q-44 0 -91 -19.5t-84 -43t-99.5 -43t-132.5 -19.5q-90 0 -156.5 31t-104 86t-55.5 121.5t-18 146.5z" />
<glyph unicode="&#x2000;" horiz-adv-x="934" />
<glyph unicode="&#x2001;" horiz-adv-x="1869" />
<glyph unicode="&#x2002;" horiz-adv-x="934" />
<glyph unicode="&#x2003;" horiz-adv-x="1869" />
<glyph unicode="&#x2004;" horiz-adv-x="623" />
<glyph unicode="&#x2005;" horiz-adv-x="467" />
<glyph unicode="&#x2006;" horiz-adv-x="311" />
<glyph unicode="&#x2007;" horiz-adv-x="311" />
<glyph unicode="&#x2008;" horiz-adv-x="233" />
<glyph unicode="&#x2009;" horiz-adv-x="373" />
<glyph unicode="&#x200a;" horiz-adv-x="103" />
<glyph unicode="&#x2010;" horiz-adv-x="819" d="M33 387v242h751v-242h-751z" />
<glyph unicode="&#x2011;" horiz-adv-x="819" d="M33 387v242h751v-242h-751z" />
<glyph unicode="&#x2012;" horiz-adv-x="819" d="M33 387v242h751v-242h-751z" />
<glyph unicode="&#x2013;" horiz-adv-x="970" d="M33 387v242h909v-242h-909z" />
<glyph unicode="&#x2014;" horiz-adv-x="1482" d="M33 387v242h1415v-242h-1415z" />
<glyph unicode="&#x2018;" horiz-adv-x="358" d="M-4 1251q0 55 17.5 103.5t45 83t60.5 63t66.5 46t61 30t45.5 17.5l17 5l41 -86q-4 -1 -12 -4t-28.5 -13t-38 -22.5t-35.5 -34t-27 -46.5q49 -9 86 -46.5t37 -99.5q0 -73 -47 -119.5t-115 -46.5q-74 0 -124 46.5t-50 123.5z" />
<glyph unicode="&#x2019;" horiz-adv-x="358" d="M-2 1169q4 1 12 4t28.5 13.5t38 23t35.5 34t27 46.5q-49 9 -86 46.5t-37 99.5q0 72 47 119t115 47q74 0 124 -46.5t50 -123.5q0 -55 -17.5 -103.5t-45 -83t-60.5 -63t-66.5 -46.5t-61 -30.5t-45.5 -17.5l-17 -5z" />
<glyph unicode="&#x201a;" horiz-adv-x="358" d="M-2 -152q4 1 12 4t28.5 13.5t38 23t35.5 34t27 46.5q-49 9 -86 46.5t-37 99.5q0 73 47 119.5t115 46.5q74 0 124 -46.5t50 -123.5q0 -55 -17.5 -103.5t-45 -83t-60.5 -63t-66.5 -46.5t-61 -30.5t-45.5 -17.5l-17 -5z" />
<glyph unicode="&#x201c;" horiz-adv-x="536" d="M-195 1251q0 75 32.5 138.5t78.5 100.5t92 63t78 36l33 10l41 -86q-5 -1 -12.5 -4t-28 -13t-38.5 -22.5t-36 -34t-27 -46.5q49 -9 86 -46.5t37 -99.5q0 -73 -46.5 -119.5t-114.5 -46.5q-74 0 -124.5 46.5t-50.5 123.5zM190 1251q0 75 32.5 138.5t78.5 100.5t92 63t79 36 l32 10l41 -86q-5 -1 -12.5 -4t-28 -13t-38.5 -22.5t-36 -34t-27 -46.5q49 -9 86 -46.5t37 -99.5q0 -73 -46.5 -119.5t-114.5 -46.5q-74 0 -124.5 46.5t-50.5 123.5z" />
<glyph unicode="&#x201d;" horiz-adv-x="634" d="M-2 1169q4 1 12 4t28.5 13.5t38 23t35.5 34t27 46.5q-49 9 -86 46.5t-37 99.5q0 72 47 119t115 47q74 0 124 -46.5t50 -123.5q0 -55 -17.5 -103.5t-45 -83t-60.5 -63t-66.5 -46.5t-61 -30.5t-45.5 -17.5l-17 -5zM408 1169q4 1 12 4t28.5 13.5t38 23t35.5 34t27 46.5 q-49 9 -86 46.5t-37 99.5q0 72 47 119t115 47q74 0 124 -46.5t50 -123.5q0 -55 -17.5 -103.5t-45 -83t-60.5 -63t-66.5 -46.5t-61 -30.5t-45.5 -17.5l-17 -5z" />
<glyph unicode="&#x201e;" horiz-adv-x="589" d="M-98 -152q4 1 12 4t28.5 13.5t38 23t35.5 34t27 46.5q-49 9 -86 46.5t-37 99.5q0 73 47 119.5t115 46.5q74 0 124 -46.5t50 -123.5q0 -55 -17.5 -103.5t-45 -83t-60.5 -63t-66.5 -46.5t-61 -30.5t-45.5 -17.5l-17 -5zM297 -152q4 1 12 4t28.5 13.5t38 23t35.5 34t27 46.5 q-49 9 -86 46.5t-37 99.5q0 73 46.5 119.5t115.5 46.5q74 0 124 -46.5t50 -123.5q0 -55 -17.5 -103.5t-45 -83t-61 -63t-66.5 -46.5t-60.5 -30.5t-44.5 -17.5l-18 -5z" />
<glyph unicode="&#x2022;" horiz-adv-x="786" d="M43 551q0 148 103 254t247 106q150 0 255.5 -106t105.5 -254q0 -152 -105 -255t-256 -103q-146 0 -248 103.5t-102 254.5z" />
<glyph unicode="&#x2026;" horiz-adv-x="1556" d="M41 201q0 92 64 158.5t155 66.5q93 0 159 -66t66 -159q0 -95 -65.5 -159.5t-159.5 -64.5q-91 0 -155 64.5t-64 159.5zM559 201q0 92 64 158.5t155 66.5q94 0 160 -66t66 -159q0 -95 -66 -159.5t-160 -64.5q-91 0 -155 64.5t-64 159.5zM1075 201q0 92 64 158.5t155 66.5 q94 0 160 -66t66 -159q0 -95 -66 -159.5t-160 -64.5q-91 0 -155 64.5t-64 159.5z" />
<glyph unicode="&#x202f;" horiz-adv-x="373" />
<glyph unicode="&#x2039;" horiz-adv-x="516" d="M0 385v293l489 315v-293l-262 -170l262 -168v-292z" />
<glyph unicode="&#x203a;" horiz-adv-x="516" d="M33 72v293l262 170l-262 167v293l489 -315v-293z" />
<glyph unicode="&#x205f;" horiz-adv-x="467" />
<glyph unicode="&#x20ac;" horiz-adv-x="1243" d="M-68 487v127h121v54h-121v127h127q14 142 63.5 248t127 170.5t173.5 96t212 31.5q111 0 208.5 -15t157.5 -36.5t104.5 -42.5t62.5 -36l18 -15v-270h-340q-2 5 -6 13t-18 29t-30 37t-43.5 29t-58.5 13q-78 0 -125 -65.5t-61 -186.5h340v-127h-346v-54h346v-127h-338 q17 -125 61.5 -177t122.5 -52q31 0 58 12.5t44 30t30 35.5t18 30l6 13h340v-270q-6 -6 -19 -16t-61 -35t-105.5 -44t-156 -35t-209.5 -16q-90 0 -165.5 16t-145 54t-121 97t-88 149.5t-52.5 207.5h-131z" />
<glyph unicode="&#x2122;" horiz-adv-x="1769" d="M8 1319h170v72h55v-322h-55v-170h332v170h-55v322h55v-72h170v242h-672v-242zM713 899v170h55v322h-55v170h434v-170h-35l111 -301l110 301h-35v170h437v-170h-58v-322h56v-170h-330v170h55v254l-160 -436h-149l-162 436v-254h55v-170h-329z" />
<glyph unicode="&#xe000;" horiz-adv-x="1085" d="M0 0v1085h1085v-1085h-1085z" />
<glyph unicode="&#xfb01;" horiz-adv-x="1503" d="M51 0v338h111v410h-111v337h109v117q0 102 32.5 183.5t102 145t188.5 98t281 34.5q71 0 138.5 -6.5t145 -27t134.5 -52.5t95 -88.5t38 -130.5q0 -98 -64.5 -166t-160.5 -68q-107 0 -173 66.5t-59 167.5q-42 11 -85 12t-83.5 -8.5t-66 -40t-25.5 -78.5v-158h743v-747h111 v-338h-657v338h110v410h-307v-410h147v-338h-694z" />
<glyph unicode="&#xfb02;" horiz-adv-x="1503" d="M51 0v338h111v410h-111v337h109v101q0 196 142 307t382 111q135 0 299 -33.5t261 -66.5l97 -34v-1132h111v-338h-657v338h110v940q-39 19 -86.5 30t-99.5 11t-86.5 -33t-34.5 -98q0 -70 -2 -103h149v-337h-147v-410h147v-338h-694z" />
</font>
</defs>
</svg>
